<svg width="413" height="480" viewBox="0 0 413 480" fill="none" xmlns="http://www.w3.org/2000/svg">
<g filter="url(#filter0_d)">
<rect x="58.7637" y="12.7959" width="343.807" height="419.871" transform="rotate(6.27024 58.7637 12.7959)" fill="white"/>
</g>
<rect x="74.2515" y="38.9844" width="305.776" height="307.297" transform="rotate(6.27024 74.2515 38.9844)" fill="black"/>
<path d="M130.117 378.731L129.691 382.605L128.386 382.461L129.473 372.568L133.122 372.969C134.205 373.087 135.022 373.457 135.573 374.077C136.128 374.697 136.356 375.463 136.256 376.373C136.15 377.333 135.767 378.041 135.108 378.496C134.453 378.946 133.566 379.11 132.447 378.987L130.117 378.731ZM130.234 377.665L132.578 377.922C133.276 377.999 133.828 377.894 134.235 377.609C134.643 377.319 134.881 376.864 134.949 376.243C135.014 375.654 134.88 375.163 134.548 374.769C134.215 374.375 133.725 374.135 133.079 374.05L130.66 373.785L130.234 377.665ZM136.952 379.613C137.031 378.893 137.243 378.26 137.587 377.716C137.935 377.172 138.378 376.771 138.915 376.514C139.457 376.257 140.052 376.164 140.7 376.236C141.701 376.346 142.471 376.781 143.011 377.542C143.556 378.303 143.765 379.259 143.638 380.41L143.629 380.498C143.55 381.214 143.341 381.842 143.002 382.382C142.668 382.919 142.228 383.317 141.681 383.578C141.139 383.839 140.537 383.934 139.875 383.861C138.879 383.752 138.108 383.316 137.564 382.555C137.024 381.794 136.817 380.843 136.942 379.701L136.952 379.613ZM138.199 379.901C138.11 380.717 138.226 381.392 138.547 381.927C138.874 382.463 139.354 382.765 139.988 382.835C140.627 382.905 141.162 382.712 141.592 382.255C142.024 381.793 142.289 381.112 142.388 380.21C142.476 379.404 142.356 378.731 142.025 378.19C141.7 377.645 141.22 377.338 140.586 377.268C139.965 377.2 139.438 377.392 139.003 377.844C138.568 378.296 138.3 378.982 138.199 379.901ZM146.176 384.416L144.919 384.278L146.066 373.84L147.323 373.979L146.176 384.416ZM152.733 385.136C152.676 384.983 152.646 384.719 152.641 384.342C151.99 384.885 151.259 385.112 150.449 385.023C149.724 384.943 149.15 384.674 148.729 384.215C148.312 383.752 148.138 383.206 148.207 382.576C148.291 381.81 148.647 381.249 149.273 380.891C149.904 380.53 150.747 380.407 151.803 380.523L153.026 380.657L153.089 380.079C153.137 379.64 153.044 379.277 152.81 378.99C152.576 378.698 152.203 378.524 151.691 378.468C151.243 378.419 150.855 378.491 150.526 378.684C150.198 378.877 150.016 379.134 149.981 379.456L148.717 379.317C148.757 378.95 148.925 378.611 149.22 378.3C149.521 377.984 149.904 377.751 150.37 377.601C150.84 377.451 151.343 377.405 151.877 377.464C152.725 377.557 153.365 377.843 153.798 378.321C154.232 378.795 154.417 379.405 154.354 380.15L153.982 383.534C153.908 384.209 153.935 384.755 154.063 385.172L154.051 385.281L152.733 385.136ZM150.752 383.949C151.146 383.992 151.531 383.931 151.907 383.766C152.283 383.601 152.568 383.364 152.762 383.056L152.928 381.547L151.943 381.439C150.402 381.27 149.583 381.636 149.484 382.537C149.44 382.931 149.538 383.254 149.776 383.505C150.015 383.756 150.34 383.904 150.752 383.949ZM160.001 379.635C159.815 379.583 159.61 379.544 159.388 379.52C158.564 379.429 157.966 379.719 157.594 380.389L157.021 385.607L155.764 385.469L156.571 378.117L157.795 378.251L157.722 379.103C158.206 378.491 158.826 378.227 159.583 378.31C159.828 378.337 160.01 378.389 160.13 378.467L160.001 379.635ZM160.422 382.192C160.501 381.472 160.713 380.839 161.057 380.295C161.405 379.751 161.848 379.35 162.385 379.093C162.927 378.836 163.522 378.743 164.17 378.814C165.171 378.924 165.941 379.36 166.481 380.121C167.026 380.882 167.235 381.838 167.108 382.988L167.099 383.077C167.02 383.792 166.811 384.421 166.472 384.961C166.138 385.497 165.698 385.896 165.151 386.157C164.609 386.418 164.007 386.513 163.346 386.44C162.349 386.33 161.578 385.895 161.034 385.134C160.494 384.373 160.287 383.422 160.412 382.28L160.422 382.192ZM161.669 382.48C161.58 383.296 161.696 383.971 162.018 384.506C162.344 385.042 162.824 385.344 163.458 385.414C164.097 385.484 164.632 385.291 165.062 384.834C165.494 384.372 165.759 383.691 165.858 382.789C165.947 381.983 165.826 381.309 165.495 380.769C165.17 380.224 164.69 379.917 164.056 379.847C163.436 379.779 162.908 379.971 162.473 380.423C162.038 380.875 161.77 381.561 161.669 382.48ZM169.646 386.995L168.389 386.856L169.197 379.504L170.454 379.642L169.646 386.995ZM169.309 377.543C169.331 377.339 169.411 377.174 169.549 377.047C169.691 376.92 169.885 376.87 170.13 376.897C170.374 376.924 170.552 377.015 170.664 377.169C170.775 377.323 170.82 377.502 170.797 377.706C170.775 377.91 170.693 378.073 170.551 378.195C170.409 378.317 170.216 378.365 169.971 378.338C169.727 378.311 169.548 378.222 169.436 378.073C169.329 377.923 169.287 377.747 169.309 377.543ZM171.769 383.445C171.893 382.317 172.26 381.441 172.869 380.816C173.48 380.186 174.217 379.918 175.082 380.013C175.943 380.108 176.593 380.477 177.031 381.121L177.452 377.289L178.709 377.427L177.562 387.864L176.407 387.737L176.432 386.943C175.862 387.503 175.128 387.734 174.231 387.636C173.38 387.542 172.723 387.117 172.26 386.36C171.802 385.604 171.635 384.664 171.758 383.541L171.769 383.445ZM173.01 383.726C172.919 384.56 173.019 385.231 173.312 385.74C173.604 386.249 174.054 386.537 174.661 386.603C175.458 386.691 176.08 386.397 176.525 385.722L176.896 382.345C176.597 381.61 176.057 381.2 175.278 381.115C174.662 381.047 174.155 381.232 173.759 381.67C173.362 382.108 173.113 382.793 173.01 383.726ZM188.863 379.086L188.746 380.153L188.515 380.128C187.534 380.038 186.723 380.243 186.082 380.741C185.44 381.239 185.018 381.992 184.815 383.001C185.402 382.461 186.146 382.24 187.048 382.339C187.908 382.434 188.561 382.812 189.006 383.476C189.456 384.14 189.628 384.952 189.523 385.912C189.411 386.931 189.043 387.716 188.418 388.266C187.798 388.817 187.022 389.041 186.089 388.939C185.142 388.835 184.414 388.388 183.904 387.598C183.396 386.804 183.204 385.834 183.33 384.688L183.383 384.206C183.583 382.385 184.123 381.037 185.004 380.161C185.889 379.282 187.1 378.915 188.639 379.062L188.863 379.086ZM186.722 383.362C186.292 383.315 185.881 383.401 185.49 383.619C185.099 383.837 184.812 384.134 184.629 384.508L184.578 384.97C184.489 385.785 184.6 386.462 184.912 387.001C185.224 387.539 185.655 387.839 186.203 387.899C186.769 387.961 187.236 387.802 187.603 387.42C187.975 387.039 188.198 386.511 188.272 385.836C188.347 385.157 188.242 384.591 187.957 384.138C187.677 383.68 187.266 383.422 186.722 383.362ZM197.324 385.765C197.162 387.237 196.79 388.304 196.209 388.964C195.627 389.625 194.802 389.896 193.733 389.779C192.677 389.663 191.934 389.228 191.504 388.475C191.073 387.717 190.926 386.641 191.06 385.249L191.245 383.57C191.405 382.116 191.775 381.063 192.355 380.412C192.936 379.761 193.763 379.494 194.836 379.612C195.901 379.729 196.647 380.157 197.075 380.896C197.503 381.631 197.646 382.71 197.503 384.134L197.324 385.765ZM196.255 383.908C196.372 382.843 196.308 382.052 196.062 381.535C195.817 381.012 195.371 380.716 194.723 380.645C194.08 380.574 193.584 380.765 193.236 381.217C192.889 381.67 192.655 382.398 192.535 383.403L192.314 385.414C192.197 386.483 192.264 387.291 192.516 387.836C192.773 388.378 193.216 388.683 193.846 388.753C194.466 388.821 194.953 388.631 195.304 388.184C195.661 387.737 195.902 386.998 196.029 385.967L196.255 383.908ZM205.138 386.624C204.976 388.096 204.605 389.162 204.023 389.823C203.442 390.483 202.616 390.755 201.547 390.637C200.492 390.521 199.749 390.087 199.318 389.333C198.888 388.575 198.74 387.5 198.875 386.107L199.059 384.429C199.219 382.975 199.589 381.922 200.169 381.271C200.75 380.619 201.577 380.352 202.651 380.47C203.715 380.587 204.461 381.016 204.889 381.755C205.317 382.49 205.46 383.569 205.317 384.993L205.138 386.624ZM204.07 384.766C204.187 383.702 204.122 382.911 203.877 382.393C203.631 381.871 203.185 381.574 202.537 381.503C201.894 381.433 201.398 381.623 201.051 382.076C200.703 382.528 200.469 383.257 200.35 384.261L200.129 386.273C200.011 387.342 200.078 388.149 200.33 388.695C200.587 389.237 201.03 389.542 201.66 389.611C202.281 389.679 202.767 389.49 203.119 389.043C203.475 388.596 203.716 387.857 203.844 386.825L204.07 384.766ZM215.999 387.666L211.848 387.21L211.367 391.579L210.063 391.435L211.15 381.542L217.279 382.215L217.161 383.289L212.337 382.759L211.965 386.143L216.117 386.599L215.999 387.666ZM217.487 388.462C217.566 387.742 217.777 387.109 218.122 386.565C218.47 386.021 218.913 385.62 219.45 385.363C219.992 385.106 220.587 385.013 221.234 385.084C222.236 385.194 223.006 385.63 223.546 386.391C224.09 387.152 224.3 388.108 224.173 389.258L224.163 389.347C224.085 390.062 223.876 390.691 223.537 391.231C223.203 391.767 222.762 392.166 222.216 392.427C221.674 392.688 221.072 392.783 220.41 392.71C219.414 392.6 218.643 392.165 218.099 391.404C217.559 390.643 217.352 389.692 217.477 388.55L217.487 388.462ZM218.734 388.75C218.645 389.566 218.761 390.241 219.082 390.776C219.409 391.312 219.889 391.614 220.523 391.684C221.162 391.754 221.697 391.561 222.127 391.104C222.559 390.642 222.824 389.961 222.923 389.059C223.011 388.253 222.89 387.579 222.56 387.039C222.235 386.494 221.755 386.187 221.121 386.117C220.5 386.049 219.973 386.241 219.538 386.693C219.103 387.145 218.835 387.831 218.734 388.75ZM229.583 387.281C229.396 387.228 229.191 387.19 228.969 387.165C228.145 387.075 227.547 387.364 227.175 388.034L226.602 393.253L225.345 393.115L226.153 385.762L227.376 385.897L227.303 386.748C227.787 386.137 228.408 385.873 229.164 385.956C229.409 385.983 229.591 386.035 229.711 386.112L229.583 387.281ZM232.051 386.41L231.995 387.229C232.604 386.655 233.366 386.417 234.281 386.518C235.309 386.631 235.966 387.102 236.251 387.931C236.534 387.604 236.883 387.354 237.296 387.179C237.714 387.005 238.19 386.947 238.725 387.006C240.338 387.183 241.064 388.127 240.903 389.838L240.362 394.765L239.105 394.626L239.638 389.775C239.696 389.249 239.619 388.844 239.407 388.56C239.196 388.271 238.807 388.095 238.241 388.033C237.774 387.981 237.371 388.079 237.032 388.326C236.694 388.569 236.474 388.923 236.372 389.388L235.836 394.267L234.573 394.128L235.102 389.311C235.219 388.242 234.755 387.65 233.708 387.535C232.884 387.444 232.281 387.733 231.901 388.402L231.311 393.77L230.054 393.632L230.862 386.28L232.051 386.41ZM246.804 395.472C246.747 395.319 246.717 395.055 246.712 394.678C246.061 395.221 245.33 395.448 244.519 395.359C243.794 395.279 243.221 395.01 242.799 394.551C242.382 394.088 242.209 393.542 242.278 392.912C242.362 392.146 242.717 391.585 243.343 391.227C243.974 390.866 244.818 390.743 245.873 390.859L247.096 390.993L247.16 390.416C247.208 389.976 247.115 389.613 246.881 389.326C246.647 389.034 246.274 388.86 245.762 388.804C245.314 388.755 244.925 388.827 244.597 389.02C244.268 389.213 244.086 389.47 244.051 389.792L242.787 389.653C242.828 389.286 242.995 388.947 243.291 388.636C243.592 388.32 243.975 388.087 244.441 387.937C244.911 387.787 245.413 387.741 245.948 387.8C246.795 387.893 247.435 388.179 247.869 388.657C248.303 389.131 248.488 389.741 248.424 390.486L248.053 393.87C247.978 394.545 248.005 395.091 248.134 395.508L248.122 395.617L246.804 395.472ZM244.823 394.285C245.217 394.328 245.602 394.267 245.978 394.102C246.353 393.937 246.638 393.7 246.833 393.392L246.999 391.883L246.013 391.775C244.473 391.606 243.653 391.972 243.554 392.873C243.511 393.267 243.609 393.59 243.847 393.841C244.085 394.092 244.411 394.24 244.823 394.285ZM252.543 386.86L252.348 388.64L253.72 388.791L253.613 389.763L252.241 389.612L251.74 394.172C251.707 394.466 251.744 394.695 251.85 394.858C251.957 395.016 252.157 395.111 252.451 395.144C252.596 395.16 252.799 395.154 253.058 395.128L252.946 396.147C252.606 396.202 252.279 396.211 251.967 396.177C251.405 396.115 251 395.899 250.752 395.528C250.504 395.157 250.414 394.659 250.483 394.033L250.984 389.474L249.645 389.327L249.752 388.355L251.091 388.502L251.286 386.722L252.543 386.86Z" fill="black"/>
<g filter="url(#filter1_d)">
<rect x="37" y="38" width="343.094" height="419" fill="white"/>
</g>
<g filter="url(#filter2_i)">
<rect x="55.2173" y="62.29" width="305.141" height="306.659" fill="url(#paint0_linear)"/>
</g>
<path d="M153.265 396.216C153.265 395.283 153.535 394.555 154.077 394.032C154.627 393.5 155.491 393.234 156.667 393.234C157.833 393.234 158.692 393.5 159.243 394.032C159.793 394.555 160.069 395.283 160.069 396.216V401.13H158.795V395.908C158.795 395.264 158.617 394.751 158.263 394.368C157.908 393.976 157.376 393.78 156.667 393.78C155.957 393.78 155.421 393.976 155.057 394.368C154.702 394.751 154.525 395.264 154.525 395.908V399.296C154.711 398.68 155.005 397.901 155.407 396.958C155.584 396.566 155.775 396.277 155.981 396.09C156.195 395.894 156.457 395.796 156.765 395.796C157.129 395.796 157.404 395.913 157.591 396.146C157.787 396.37 157.885 396.659 157.885 397.014C157.885 397.35 157.787 397.635 157.591 397.868C157.395 398.101 157.124 398.218 156.779 398.218C156.564 398.218 156.368 398.157 156.191 398.036C156.013 397.915 155.892 397.719 155.827 397.448C155.649 397.756 155.416 398.325 155.127 399.156C154.847 399.977 154.641 400.635 154.511 401.13H153.265V396.216ZM156.793 397.784C156.979 397.784 157.133 397.719 157.255 397.588C157.385 397.448 157.451 397.252 157.451 397C157.451 396.757 157.385 396.571 157.255 396.44C157.133 396.309 156.979 396.244 156.793 396.244C156.606 396.244 156.452 396.309 156.331 396.44C156.209 396.571 156.149 396.757 156.149 397C156.149 397.252 156.209 397.448 156.331 397.588C156.452 397.719 156.606 397.784 156.793 397.784ZM159.038 404.154C158.898 404.238 158.725 404.28 158.52 404.28C158.212 404.28 157.964 404.173 157.778 403.958C157.582 403.743 157.484 403.468 157.484 403.132C157.484 402.805 157.6 402.544 157.834 402.348C158.058 402.152 158.356 402.054 158.73 402.054C159.616 402.054 160.06 402.465 160.06 403.286V405.862H159.038V404.154ZM158.632 403.874C158.8 403.874 158.944 403.809 159.066 403.678C159.178 403.557 159.234 403.384 159.234 403.16C159.234 402.936 159.178 402.759 159.066 402.628C158.944 402.507 158.8 402.446 158.632 402.446C158.464 402.446 158.324 402.507 158.212 402.628C158.09 402.759 158.03 402.936 158.03 403.16C158.03 403.384 158.09 403.557 158.212 403.678C158.324 403.809 158.464 403.874 158.632 403.874ZM171.246 398.694C171.554 398.759 171.792 398.904 171.96 399.128C172.128 399.352 172.212 399.627 172.212 399.954C172.212 400.355 172.09 400.677 171.848 400.92C171.605 401.153 171.26 401.27 170.812 401.27C170.373 401.27 170.032 401.153 169.79 400.92C169.547 400.677 169.426 400.355 169.426 399.954C169.426 399.842 169.43 399.763 169.44 399.716C168.908 399.968 168.502 400.197 168.222 400.402C167.942 400.598 167.764 400.841 167.69 401.13H166.472V395.572C166.472 395.04 166.327 394.611 166.038 394.284C165.748 393.948 165.272 393.78 164.61 393.78C164.162 393.78 163.76 393.887 163.406 394.102C163.06 394.317 162.776 394.629 162.552 395.04C162.832 395.133 163.126 395.273 163.434 395.46C163.742 395.647 163.994 395.843 164.19 396.048V396.16C163.77 396.412 163.48 396.669 163.322 396.93C163.163 397.182 163.084 397.541 163.084 398.008V398.96C163.205 398.885 163.354 398.848 163.532 398.848C163.821 398.848 164.073 398.951 164.288 399.156C164.502 399.361 164.61 399.66 164.61 400.052C164.61 400.435 164.488 400.733 164.246 400.948C164.003 401.163 163.676 401.27 163.266 401.27C162.762 401.27 162.393 401.139 162.16 400.878C161.926 400.607 161.81 400.239 161.81 399.772V397.994C161.81 397.154 162.225 396.519 163.056 396.09C162.673 395.782 162.169 395.525 161.544 395.32V395.152C161.824 394.564 162.225 394.097 162.748 393.752C163.28 393.407 163.938 393.234 164.722 393.234C165.646 393.234 166.378 393.449 166.92 393.878C167.461 394.298 167.732 394.933 167.732 395.782V400.108C167.881 399.94 168.054 399.795 168.25 399.674C168.455 399.553 168.721 399.413 169.048 399.254C169.393 399.086 169.664 398.941 169.86 398.82C170.065 398.689 170.238 398.526 170.378 398.33C170.518 398.134 170.588 397.901 170.588 397.63V393.388H171.848V397.14C171.848 397.392 171.829 397.611 171.792 397.798C171.726 398.125 171.544 398.423 171.246 398.694ZM170.812 400.766C171.017 400.766 171.185 400.696 171.316 400.556C171.446 400.416 171.512 400.211 171.512 399.94C171.512 399.679 171.446 399.478 171.316 399.338C171.185 399.189 171.017 399.114 170.812 399.114C170.737 399.114 170.662 399.128 170.588 399.156L170.392 399.254C170.205 399.413 170.112 399.641 170.112 399.94C170.112 400.211 170.177 400.416 170.308 400.556C170.438 400.696 170.606 400.766 170.812 400.766ZM163.322 399.24C163.126 399.24 162.962 399.31 162.832 399.45C162.71 399.59 162.65 399.786 162.65 400.038C162.65 400.29 162.71 400.491 162.832 400.64C162.962 400.78 163.126 400.85 163.322 400.85C163.518 400.85 163.681 400.78 163.812 400.64C163.942 400.491 164.008 400.29 164.008 400.038C164.008 399.786 163.942 399.59 163.812 399.45C163.681 399.31 163.518 399.24 163.322 399.24ZM175.079 401.27C174.528 401.27 174.136 401.13 173.903 400.85C173.679 400.561 173.567 400.155 173.567 399.632V393.388H174.827V398.974C174.957 398.899 175.121 398.862 175.317 398.862C175.606 398.862 175.863 398.965 176.087 399.17C176.311 399.375 176.423 399.669 176.423 400.052C176.423 400.435 176.301 400.733 176.059 400.948C175.825 401.163 175.499 401.27 175.079 401.27ZM175.121 400.85C175.317 400.85 175.48 400.78 175.611 400.64C175.741 400.491 175.807 400.29 175.807 400.038C175.807 399.786 175.741 399.59 175.611 399.45C175.48 399.31 175.317 399.24 175.121 399.24C174.925 399.24 174.761 399.31 174.631 399.45C174.509 399.59 174.449 399.786 174.449 400.038C174.449 400.29 174.509 400.491 174.631 400.64C174.761 400.78 174.925 400.85 175.121 400.85ZM177.589 400.598H178.359V395.614C178.285 395.67 178.149 395.698 177.953 395.698C177.617 395.698 177.333 395.591 177.099 395.376C176.875 395.161 176.763 394.858 176.763 394.466C176.763 394.083 176.88 393.785 177.113 393.57C177.356 393.346 177.683 393.234 178.093 393.234C179.111 393.234 179.619 393.738 179.619 394.746V400.598H181.999C182.373 400.598 182.629 400.495 182.769 400.29C182.909 400.085 182.979 399.805 182.979 399.45V390.42H184.253V399.436C184.253 400.033 184.113 400.467 183.833 400.738C183.553 400.999 183.115 401.13 182.517 401.13H177.589V400.598ZM178.051 395.278C178.247 395.278 178.406 395.208 178.527 395.068C178.658 394.928 178.723 394.732 178.723 394.48C178.723 394.228 178.658 394.032 178.527 393.892C178.406 393.743 178.247 393.668 178.051 393.668C177.855 393.668 177.692 393.743 177.561 393.892C177.431 394.032 177.365 394.228 177.365 394.48C177.365 394.732 177.431 394.928 177.561 395.068C177.692 395.208 177.855 395.278 178.051 395.278ZM178.379 392.086C178.015 391.965 177.745 391.759 177.567 391.47C177.381 391.171 177.287 390.859 177.287 390.532C177.287 390.084 177.418 389.72 177.679 389.44C177.931 389.151 178.333 389.006 178.883 389.006H180.605C180.923 389.006 181.133 388.941 181.235 388.81C181.338 388.67 181.399 388.437 181.417 388.11H182.257C182.239 388.595 182.131 388.959 181.935 389.202C181.739 389.435 181.371 389.552 180.829 389.552H179.093C178.757 389.552 178.515 389.636 178.365 389.804C178.216 389.972 178.141 390.201 178.141 390.49C178.141 390.873 178.239 391.153 178.435 391.33C178.594 391.153 178.767 391.003 178.953 390.882C179.14 390.751 179.313 390.672 179.471 390.644C179.779 390.971 180.069 391.199 180.339 391.33C180.293 391.218 180.269 391.115 180.269 391.022C180.269 390.779 180.353 390.569 180.521 390.392C180.689 390.215 180.909 390.126 181.179 390.126C181.497 390.126 181.735 390.219 181.893 390.406C182.052 390.583 182.131 390.803 182.131 391.064C182.131 391.335 182.047 391.573 181.879 391.778C181.702 391.974 181.45 392.072 181.123 392.072C180.843 392.072 180.573 392.011 180.311 391.89C180.05 391.759 179.747 391.54 179.401 391.232C179.056 391.363 178.715 391.647 178.379 392.086ZM181.165 391.638C181.324 391.638 181.455 391.587 181.557 391.484C181.651 391.381 181.697 391.241 181.697 391.064C181.697 390.887 181.651 390.751 181.557 390.658C181.455 390.565 181.324 390.518 181.165 390.518C181.016 390.518 180.895 390.569 180.801 390.672C180.708 390.765 180.661 390.896 180.661 391.064C180.661 391.241 180.708 391.381 180.801 391.484C180.895 391.587 181.016 391.638 181.165 391.638ZM191.679 401.27C191.231 401.27 190.881 401.153 190.629 400.92C190.387 400.677 190.265 400.355 190.265 399.954C190.265 399.823 190.289 399.697 190.335 399.576C190.251 399.613 189.995 399.73 189.565 399.926C189.136 400.113 188.795 400.309 188.543 400.514C188.291 400.71 188.137 400.915 188.081 401.13H186.863V395.614C186.789 395.67 186.653 395.698 186.457 395.698C186.121 395.698 185.837 395.591 185.603 395.376C185.379 395.161 185.267 394.858 185.267 394.466C185.267 394.083 185.384 393.785 185.617 393.57C185.86 393.346 186.187 393.234 186.597 393.234C187.615 393.234 188.123 393.738 188.123 394.746V400.108C188.273 399.94 188.455 399.8 188.669 399.688C188.893 399.567 189.22 399.413 189.649 399.226C190.237 398.983 190.681 398.755 190.979 398.54C191.287 398.316 191.441 398.013 191.441 397.63V393.388H192.715V397.588C192.715 397.989 192.501 398.363 192.071 398.708C192.398 398.783 192.645 398.932 192.813 399.156C192.981 399.371 193.065 399.637 193.065 399.954C193.065 400.355 192.944 400.677 192.701 400.92C192.459 401.153 192.118 401.27 191.679 401.27ZM186.555 395.278C186.751 395.278 186.91 395.208 187.031 395.068C187.162 394.928 187.227 394.732 187.227 394.48C187.227 394.228 187.162 394.032 187.031 393.892C186.91 393.743 186.751 393.668 186.555 393.668C186.359 393.668 186.196 393.743 186.065 393.892C185.935 394.032 185.869 394.228 185.869 394.48C185.869 394.732 185.935 394.928 186.065 395.068C186.196 395.208 186.359 395.278 186.555 395.278ZM191.679 400.766C191.875 400.766 192.034 400.696 192.155 400.556C192.286 400.416 192.351 400.211 192.351 399.94C192.351 399.679 192.286 399.478 192.155 399.338C192.034 399.189 191.875 399.114 191.679 399.114C191.465 399.114 191.292 399.193 191.161 399.352C191.04 399.511 190.979 399.707 190.979 399.94C190.979 400.211 191.045 400.416 191.175 400.556C191.306 400.696 191.474 400.766 191.679 400.766ZM194.444 395.712C194.444 395.068 194.589 394.536 194.878 394.116C195.177 393.687 195.7 393.393 196.446 393.234L197.832 394.214L199.218 393.234C199.965 393.393 200.483 393.687 200.772 394.116C201.071 394.536 201.22 395.068 201.22 395.712V401.13H199.96V396.048C199.96 395.451 199.909 395.012 199.806 394.732C199.704 394.443 199.475 394.214 199.12 394.046L197.846 394.942L196.558 394.046C196.204 394.214 195.975 394.438 195.872 394.718C195.77 394.998 195.718 395.441 195.718 396.048V400.36C196.054 400.201 196.484 399.907 197.006 399.478C197.538 399.049 197.874 398.685 198.014 398.386C197.968 398.405 197.902 398.414 197.818 398.414C197.501 398.414 197.24 398.297 197.034 398.064C196.838 397.831 196.74 397.546 196.74 397.21C196.74 396.855 196.838 396.566 197.034 396.342C197.24 396.118 197.515 396.006 197.86 396.006C198.234 396.006 198.518 396.127 198.714 396.37C198.92 396.613 199.022 396.925 199.022 397.308C199.022 398.456 197.884 399.73 195.606 401.13H194.444V395.712ZM197.874 397.994C198.052 397.994 198.201 397.924 198.322 397.784C198.453 397.644 198.518 397.453 198.518 397.21C198.518 396.967 198.453 396.781 198.322 396.65C198.201 396.519 198.052 396.454 197.874 396.454C197.688 396.454 197.529 396.519 197.398 396.65C197.277 396.781 197.216 396.967 197.216 397.21C197.216 397.462 197.277 397.658 197.398 397.798C197.529 397.929 197.688 397.994 197.874 397.994ZM199.937 392.184C199.163 392.184 198.561 392.03 198.131 391.722C197.693 391.405 197.473 390.989 197.473 390.476C197.473 390.131 197.59 389.846 197.823 389.622C198.047 389.398 198.351 389.286 198.733 389.286C199.06 389.286 199.34 389.379 199.573 389.566C199.807 389.753 199.923 390.014 199.923 390.35C199.923 390.621 199.858 390.859 199.727 391.064C199.587 391.269 199.368 391.414 199.069 391.498C199.331 391.619 199.615 391.68 199.923 391.68C200.315 391.68 200.684 391.587 201.029 391.4C201.365 391.204 201.645 390.933 201.869 390.588C202.093 390.243 202.229 389.846 202.275 389.398H203.171C203.069 390.322 202.714 391.017 202.107 391.484C201.501 391.951 200.777 392.184 199.937 392.184ZM198.719 391.134C198.915 391.134 199.069 391.073 199.181 390.952C199.293 390.831 199.349 390.667 199.349 390.462C199.349 390.247 199.293 390.079 199.181 389.958C199.069 389.837 198.915 389.776 198.719 389.776C198.533 389.776 198.383 389.837 198.271 389.958C198.159 390.079 198.103 390.247 198.103 390.462C198.103 390.667 198.159 390.831 198.271 390.952C198.383 391.073 198.533 391.134 198.719 391.134ZM206.671 401.27C206.251 401.27 205.92 401.163 205.677 400.948C205.444 400.733 205.327 400.435 205.327 400.052C205.327 399.651 205.444 399.352 205.677 399.156C205.92 398.951 206.219 398.848 206.573 398.848C206.723 398.848 206.839 398.867 206.923 398.904V395.628C206.923 395.049 206.76 394.592 206.433 394.256C206.107 393.911 205.617 393.738 204.963 393.738C204.469 393.738 204.021 393.897 203.619 394.214C203.218 394.522 202.947 394.951 202.807 395.502H202.247C202.369 394.793 202.695 394.237 203.227 393.836C203.759 393.435 204.427 393.234 205.229 393.234C206.125 393.234 206.839 393.444 207.371 393.864C207.913 394.284 208.183 394.909 208.183 395.74V399.772C208.183 400.771 207.679 401.27 206.671 401.27ZM206.629 400.85C206.825 400.85 206.984 400.78 207.105 400.64C207.236 400.491 207.301 400.29 207.301 400.038C207.301 399.786 207.236 399.59 207.105 399.45C206.984 399.31 206.825 399.24 206.629 399.24C206.433 399.24 206.27 399.31 206.139 399.45C206.009 399.59 205.943 399.786 205.943 400.038C205.943 400.29 206.009 400.491 206.139 400.64C206.27 400.78 206.433 400.85 206.629 400.85ZM213.659 401.27C212.987 401.27 212.389 401.13 211.867 400.85C211.353 400.561 211.097 400.113 211.097 399.506V398.582C211.097 398.218 211.176 397.901 211.335 397.63C211.503 397.35 211.755 397.014 212.091 396.622C212.371 396.305 212.581 396.034 212.721 395.81C212.861 395.586 212.931 395.348 212.931 395.096C212.931 394.676 212.809 394.349 212.567 394.116C212.324 393.873 211.969 393.752 211.503 393.752C211.157 393.752 210.859 393.855 210.607 394.06C210.355 394.265 210.187 394.517 210.103 394.816C210.159 394.76 210.238 394.713 210.341 394.676C210.453 394.639 210.569 394.62 210.691 394.62C211.055 394.62 211.33 394.732 211.517 394.956C211.703 395.18 211.797 395.465 211.797 395.81C211.797 396.146 211.685 396.431 211.461 396.664C211.246 396.897 210.957 397.014 210.593 397.014C210.163 397.014 209.837 396.86 209.613 396.552C209.389 396.244 209.277 395.852 209.277 395.376C209.277 395.003 209.37 394.653 209.557 394.326C209.743 393.999 210.009 393.738 210.355 393.542C210.7 393.337 211.111 393.234 211.587 393.234C212.287 393.234 212.828 393.402 213.211 393.738C213.603 394.074 213.799 394.531 213.799 395.11C213.799 395.446 213.733 395.749 213.603 396.02C213.472 396.291 213.276 396.608 213.015 396.972C212.791 397.308 212.623 397.579 212.511 397.784C212.408 397.989 212.357 398.218 212.357 398.47V399.688C212.357 400.043 212.487 400.304 212.749 400.472C213.01 400.64 213.323 400.724 213.687 400.724C214.041 400.724 214.34 400.645 214.583 400.486C214.825 400.318 214.947 400.052 214.947 399.688V393.388H216.221V399.506C216.221 400.113 215.959 400.561 215.437 400.85C214.923 401.13 214.331 401.27 213.659 401.27ZM210.579 396.608C210.765 396.608 210.919 396.538 211.041 396.398C211.171 396.249 211.237 396.053 211.237 395.81C211.237 395.558 211.171 395.367 211.041 395.236C210.919 395.096 210.765 395.026 210.579 395.026C210.392 395.026 210.238 395.096 210.117 395.236C209.995 395.367 209.935 395.558 209.935 395.81C209.935 396.053 209.995 396.249 210.117 396.398C210.247 396.538 210.401 396.608 210.579 396.608ZM217.946 397.476C217.946 396.468 218.455 395.964 219.472 395.964C219.883 395.964 220.209 396.076 220.452 396.3C220.695 396.515 220.816 396.813 220.816 397.196C220.816 397.588 220.699 397.891 220.466 398.106C220.233 398.321 219.948 398.428 219.612 398.428C219.463 398.428 219.332 398.405 219.22 398.358V400.598H221.628C221.964 400.598 222.211 400.505 222.37 400.318C222.538 400.122 222.622 399.856 222.622 399.52V395.656C222.622 395.124 222.431 394.671 222.048 394.298C221.675 393.925 221.133 393.738 220.424 393.738C219.883 393.738 219.397 393.859 218.968 394.102C218.539 394.345 218.212 394.718 217.988 395.222H217.428C217.624 394.606 218.007 394.121 218.576 393.766C219.155 393.411 219.859 393.234 220.69 393.234C221.623 393.234 222.389 393.444 222.986 393.864C223.593 394.284 223.896 394.909 223.896 395.74V399.506C223.896 400.075 223.747 400.491 223.448 400.752C223.149 401.004 222.701 401.13 222.104 401.13H217.946V397.476ZM219.514 398.008C219.71 398.008 219.873 397.938 220.004 397.798C220.135 397.658 220.2 397.462 220.2 397.21C220.2 396.958 220.135 396.762 220.004 396.622C219.873 396.473 219.71 396.398 219.514 396.398C219.318 396.398 219.155 396.473 219.024 396.622C218.903 396.762 218.842 396.958 218.842 397.21C218.842 397.462 218.903 397.658 219.024 397.798C219.155 397.938 219.318 398.008 219.514 398.008ZM226.974 401.13C226.797 400.421 226.503 399.679 226.092 398.904C225.681 398.129 225.275 397.537 224.874 397.126L225.742 396.524C226.199 397 226.624 397.611 227.016 398.358C227.417 399.105 227.711 399.786 227.898 400.402H228.36C228.593 400.402 228.766 400.309 228.878 400.122C228.999 399.935 229.06 399.725 229.06 399.492V395.572C228.948 395.637 228.789 395.67 228.584 395.67C228.285 395.67 228.024 395.563 227.8 395.348C227.576 395.124 227.464 394.83 227.464 394.466C227.464 394.083 227.581 393.785 227.814 393.57C228.057 393.346 228.383 393.234 228.794 393.234C229.811 393.234 230.32 393.738 230.32 394.746V399.352C230.32 399.856 230.166 400.281 229.858 400.626C229.55 400.962 229.065 401.13 228.402 401.13H226.974ZM228.752 395.278C228.948 395.278 229.107 395.208 229.228 395.068C229.359 394.928 229.424 394.732 229.424 394.48C229.424 394.228 229.359 394.032 229.228 393.892C229.107 393.743 228.948 393.668 228.752 393.668C228.556 393.668 228.393 393.743 228.262 393.892C228.131 394.032 228.066 394.228 228.066 394.48C228.066 394.732 228.131 394.928 228.262 395.068C228.393 395.208 228.556 395.278 228.752 395.278ZM232.069 395.712C232.069 395.068 232.214 394.536 232.503 394.116C232.802 393.687 233.325 393.393 234.071 393.234L235.457 394.214L236.843 393.234C237.59 393.393 238.108 393.687 238.397 394.116C238.696 394.536 238.845 395.068 238.845 395.712V401.13H237.585V396.048C237.585 395.451 237.534 395.012 237.431 394.732C237.329 394.443 237.1 394.214 236.745 394.046L235.471 394.942L234.183 394.046C233.829 394.214 233.6 394.438 233.497 394.718C233.395 394.998 233.343 395.441 233.343 396.048V400.36C233.679 400.201 234.109 399.907 234.631 399.478C235.163 399.049 235.499 398.685 235.639 398.386C235.593 398.405 235.527 398.414 235.443 398.414C235.126 398.414 234.865 398.297 234.659 398.064C234.463 397.831 234.365 397.546 234.365 397.21C234.365 396.855 234.463 396.566 234.659 396.342C234.865 396.118 235.14 396.006 235.485 396.006C235.859 396.006 236.143 396.127 236.339 396.37C236.545 396.613 236.647 396.925 236.647 397.308C236.647 398.456 235.509 399.73 233.231 401.13H232.069V395.712ZM235.499 397.994C235.677 397.994 235.826 397.924 235.947 397.784C236.078 397.644 236.143 397.453 236.143 397.21C236.143 396.967 236.078 396.781 235.947 396.65C235.826 396.519 235.677 396.454 235.499 396.454C235.313 396.454 235.154 396.519 235.023 396.65C234.902 396.781 234.841 396.967 234.841 397.21C234.841 397.462 234.902 397.658 235.023 397.798C235.154 397.929 235.313 397.994 235.499 397.994ZM237.562 392.184C236.788 392.184 236.186 392.03 235.756 391.722C235.318 391.405 235.098 390.989 235.098 390.476C235.098 390.131 235.215 389.846 235.448 389.622C235.672 389.398 235.976 389.286 236.358 389.286C236.685 389.286 236.965 389.379 237.198 389.566C237.432 389.753 237.548 390.014 237.548 390.35C237.548 390.621 237.483 390.859 237.352 391.064C237.212 391.269 236.993 391.414 236.694 391.498C236.956 391.619 237.24 391.68 237.548 391.68C237.94 391.68 238.309 391.587 238.654 391.4C238.99 391.204 239.27 390.933 239.494 390.588C239.718 390.243 239.854 389.846 239.9 389.398H240.796C240.694 390.322 240.339 391.017 239.732 391.484C239.126 391.951 238.402 392.184 237.562 392.184ZM236.344 391.134C236.54 391.134 236.694 391.073 236.806 390.952C236.918 390.831 236.974 390.667 236.974 390.462C236.974 390.247 236.918 390.079 236.806 389.958C236.694 389.837 236.54 389.776 236.344 389.776C236.158 389.776 236.008 389.837 235.896 389.958C235.784 390.079 235.728 390.247 235.728 390.462C235.728 390.667 235.784 390.831 235.896 390.952C236.008 391.073 236.158 391.134 236.344 391.134ZM244.296 401.27C243.876 401.27 243.545 401.163 243.302 400.948C243.069 400.733 242.952 400.435 242.952 400.052C242.952 399.651 243.069 399.352 243.302 399.156C243.545 398.951 243.844 398.848 244.198 398.848C244.348 398.848 244.464 398.867 244.548 398.904V395.628C244.548 395.049 244.385 394.592 244.058 394.256C243.732 393.911 243.242 393.738 242.588 393.738C242.094 393.738 241.646 393.897 241.244 394.214C240.843 394.522 240.572 394.951 240.432 395.502H239.872C239.994 394.793 240.32 394.237 240.852 393.836C241.384 393.435 242.052 393.234 242.854 393.234C243.75 393.234 244.464 393.444 244.996 393.864C245.538 394.284 245.808 394.909 245.808 395.74V399.772C245.808 400.771 245.304 401.27 244.296 401.27ZM244.254 400.85C244.45 400.85 244.609 400.78 244.73 400.64C244.861 400.491 244.926 400.29 244.926 400.038C244.926 399.786 244.861 399.59 244.73 399.45C244.609 399.31 244.45 399.24 244.254 399.24C244.058 399.24 243.895 399.31 243.764 399.45C243.634 399.59 243.568 399.786 243.568 400.038C243.568 400.29 243.634 400.491 243.764 400.64C243.895 400.78 244.058 400.85 244.254 400.85ZM249.044 401.27C248.493 401.27 248.101 401.13 247.868 400.85C247.644 400.561 247.532 400.155 247.532 399.632V393.388H248.792V398.974C248.922 398.899 249.086 398.862 249.282 398.862C249.571 398.862 249.828 398.965 250.052 399.17C250.276 399.375 250.388 399.669 250.388 400.052C250.388 400.435 250.266 400.733 250.024 400.948C249.79 401.163 249.464 401.27 249.044 401.27ZM249.086 400.85C249.282 400.85 249.445 400.78 249.576 400.64C249.706 400.491 249.772 400.29 249.772 400.038C249.772 399.786 249.706 399.59 249.576 399.45C249.445 399.31 249.282 399.24 249.086 399.24C248.89 399.24 248.726 399.31 248.596 399.45C248.474 399.59 248.414 399.786 248.414 400.038C248.414 400.29 248.474 400.491 248.596 400.64C248.726 400.78 248.89 400.85 249.086 400.85ZM251.442 397.476C251.442 396.468 251.951 395.964 252.968 395.964C253.379 395.964 253.705 396.076 253.948 396.3C254.191 396.515 254.312 396.813 254.312 397.196C254.312 397.588 254.195 397.891 253.962 398.106C253.729 398.321 253.444 398.428 253.108 398.428C252.959 398.428 252.828 398.405 252.716 398.358V400.598H255.124C255.46 400.598 255.707 400.505 255.866 400.318C256.034 400.122 256.118 399.856 256.118 399.52V395.656C256.118 395.124 255.927 394.671 255.544 394.298C255.171 393.925 254.629 393.738 253.92 393.738C253.379 393.738 252.893 393.859 252.464 394.102C252.035 394.345 251.708 394.718 251.484 395.222H250.924C251.12 394.606 251.503 394.121 252.072 393.766C252.651 393.411 253.355 393.234 254.186 393.234C255.119 393.234 255.885 393.444 256.482 393.864C257.089 394.284 257.392 394.909 257.392 395.74V399.506C257.392 400.075 257.243 400.491 256.944 400.752C256.645 401.004 256.197 401.13 255.6 401.13H251.442V397.476ZM253.01 398.008C253.206 398.008 253.369 397.938 253.5 397.798C253.631 397.658 253.696 397.462 253.696 397.21C253.696 396.958 253.631 396.762 253.5 396.622C253.369 396.473 253.206 396.398 253.01 396.398C252.814 396.398 252.651 396.473 252.52 396.622C252.399 396.762 252.338 396.958 252.338 397.21C252.338 397.462 252.399 397.658 252.52 397.798C252.651 397.938 252.814 398.008 253.01 398.008ZM260.47 401.13C260.293 400.421 259.999 399.679 259.588 398.904C259.177 398.129 258.771 397.537 258.37 397.126L259.238 396.524C259.695 397 260.12 397.611 260.512 398.358C260.913 399.105 261.207 399.786 261.394 400.402H261.856C262.089 400.402 262.262 400.309 262.374 400.122C262.495 399.935 262.556 399.725 262.556 399.492V395.572C262.444 395.637 262.285 395.67 262.08 395.67C261.781 395.67 261.52 395.563 261.296 395.348C261.072 395.124 260.96 394.83 260.96 394.466C260.96 394.083 261.077 393.785 261.31 393.57C261.553 393.346 261.879 393.234 262.29 393.234C263.307 393.234 263.816 393.738 263.816 394.746V399.352C263.816 399.856 263.662 400.281 263.354 400.626C263.046 400.962 262.561 401.13 261.898 401.13H260.47ZM262.248 395.278C262.444 395.278 262.603 395.208 262.724 395.068C262.855 394.928 262.92 394.732 262.92 394.48C262.92 394.228 262.855 394.032 262.724 393.892C262.603 393.743 262.444 393.668 262.248 393.668C262.052 393.668 261.889 393.743 261.758 393.892C261.627 394.032 261.562 394.228 261.562 394.48C261.562 394.732 261.627 394.928 261.758 395.068C261.889 395.208 262.052 395.278 262.248 395.278Z" fill="black"/>
<defs>
<filter id="filter0_d" x="0.90625" y="0.795898" width="411.608" height="478.909" filterUnits="userSpaceOnUse" color-interpolation-filters="sRGB">
<feFlood flood-opacity="0" result="BackgroundImageFix"/>
<feColorMatrix in="SourceAlpha" type="matrix" values="0 0 0 0 0 0 0 0 0 0 0 0 0 0 0 0 0 0 127 0" result="hardAlpha"/>
<feOffset/>
<feGaussianBlur stdDeviation="6"/>
<feColorMatrix type="matrix" values="0 0 0 0 0 0 0 0 0 0 0 0 0 0 0 0 0 0 0.1 0"/>
<feBlend mode="normal" in2="BackgroundImageFix" result="effect1_dropShadow"/>
<feBlend mode="normal" in="SourceGraphic" in2="effect1_dropShadow" result="shape"/>
</filter>
<filter id="filter1_d" x="25" y="26" width="367.094" height="443" filterUnits="userSpaceOnUse" color-interpolation-filters="sRGB">
<feFlood flood-opacity="0" result="BackgroundImageFix"/>
<feColorMatrix in="SourceAlpha" type="matrix" values="0 0 0 0 0 0 0 0 0 0 0 0 0 0 0 0 0 0 127 0" result="hardAlpha"/>
<feOffset/>
<feGaussianBlur stdDeviation="6"/>
<feColorMatrix type="matrix" values="0 0 0 0 0 0 0 0 0 0 0 0 0 0 0 0 0 0 0.1 0"/>
<feBlend mode="normal" in2="BackgroundImageFix" result="effect1_dropShadow"/>
<feBlend mode="normal" in="SourceGraphic" in2="effect1_dropShadow" result="shape"/>
</filter>
<filter id="filter2_i" x="55.2173" y="62.29" width="305.141" height="307.659" filterUnits="userSpaceOnUse" color-interpolation-filters="sRGB">
<feFlood flood-opacity="0" result="BackgroundImageFix"/>
<feBlend mode="normal" in="SourceGraphic" in2="BackgroundImageFix" result="shape"/>
<feColorMatrix in="SourceAlpha" type="matrix" values="0 0 0 0 0 0 0 0 0 0 0 0 0 0 0 0 0 0 127 0" result="hardAlpha"/>
<feOffset dy="1"/>
<feGaussianBlur stdDeviation="2"/>
<feComposite in2="hardAlpha" operator="arithmetic" k2="-1" k3="1"/>
<feColorMatrix type="matrix" values="0 0 0 0 0 0 0 0 0 0 0 0 0 0 0 0 0 0 0.18 0"/>
<feBlend mode="normal" in2="shape" result="effect1_innerShadow"/>
</filter>
<linearGradient id="paint0_linear" x1="285" y1="147" x2="26.9999" y2="499" gradientUnits="userSpaceOnUse">
<stop stop-color="#372920"/>
<stop offset="1" stop-color="#BB6705"/>
</linearGradient>
</defs>
</svg>
