<svg width="413" height="480" viewBox="0 0 413 480" fill="none" xmlns="http://www.w3.org/2000/svg">
<g filter="url(#filter0_d)">
<rect x="58.7637" y="12.7959" width="343.807" height="419.871" transform="rotate(6.27024 58.7637 12.7959)" fill="white"/>
</g>
<rect x="74.2515" y="38.9844" width="305.776" height="307.297" transform="rotate(6.27024 74.2515 38.9844)" fill="black"/>
<path d="M130.117 378.731L129.691 382.605L128.386 382.461L129.473 372.568L133.122 372.969C134.205 373.087 135.022 373.457 135.573 374.077C136.128 374.697 136.356 375.463 136.256 376.373C136.15 377.333 135.767 378.041 135.108 378.496C134.453 378.946 133.566 379.11 132.447 378.987L130.117 378.731ZM130.234 377.665L132.578 377.922C133.276 377.999 133.828 377.894 134.235 377.609C134.643 377.319 134.881 376.864 134.949 376.243C135.014 375.654 134.88 375.163 134.548 374.769C134.215 374.375 133.725 374.135 133.079 374.05L130.66 373.785L130.234 377.665ZM136.952 379.613C137.031 378.893 137.243 378.26 137.587 377.716C137.935 377.172 138.378 376.771 138.915 376.514C139.457 376.257 140.052 376.164 140.7 376.236C141.701 376.346 142.471 376.781 143.011 377.542C143.556 378.303 143.765 379.259 143.638 380.41L143.629 380.498C143.55 381.214 143.341 381.842 143.002 382.382C142.668 382.919 142.228 383.317 141.681 383.578C141.139 383.839 140.537 383.934 139.875 383.861C138.879 383.752 138.108 383.316 137.564 382.555C137.024 381.794 136.817 380.843 136.942 379.701L136.952 379.613ZM138.199 379.901C138.11 380.717 138.226 381.392 138.547 381.927C138.874 382.463 139.354 382.765 139.988 382.835C140.627 382.905 141.162 382.712 141.592 382.255C142.024 381.793 142.289 381.112 142.388 380.21C142.476 379.404 142.356 378.731 142.025 378.19C141.7 377.645 141.22 377.338 140.586 377.268C139.965 377.2 139.438 377.392 139.003 377.844C138.568 378.296 138.3 378.982 138.199 379.901ZM146.176 384.416L144.919 384.278L146.066 373.84L147.323 373.979L146.176 384.416ZM152.733 385.136C152.676 384.983 152.646 384.719 152.641 384.342C151.99 384.885 151.259 385.112 150.449 385.023C149.724 384.943 149.15 384.674 148.729 384.215C148.312 383.752 148.138 383.206 148.207 382.576C148.291 381.81 148.647 381.249 149.273 380.891C149.904 380.53 150.747 380.407 151.803 380.523L153.026 380.657L153.089 380.079C153.137 379.64 153.044 379.277 152.81 378.99C152.576 378.698 152.203 378.524 151.691 378.468C151.243 378.419 150.855 378.491 150.526 378.684C150.198 378.877 150.016 379.134 149.981 379.456L148.717 379.317C148.757 378.95 148.925 378.611 149.22 378.3C149.521 377.984 149.904 377.751 150.37 377.601C150.84 377.451 151.343 377.405 151.877 377.464C152.725 377.557 153.365 377.843 153.798 378.321C154.232 378.795 154.417 379.405 154.354 380.15L153.982 383.534C153.908 384.209 153.935 384.755 154.063 385.172L154.051 385.281L152.733 385.136ZM150.752 383.949C151.146 383.992 151.531 383.931 151.907 383.766C152.283 383.601 152.568 383.364 152.762 383.056L152.928 381.547L151.943 381.439C150.402 381.27 149.583 381.636 149.484 382.537C149.44 382.931 149.538 383.254 149.776 383.505C150.015 383.756 150.34 383.904 150.752 383.949ZM160.001 379.635C159.815 379.583 159.61 379.544 159.388 379.52C158.564 379.429 157.966 379.719 157.594 380.389L157.021 385.607L155.764 385.469L156.571 378.117L157.795 378.251L157.722 379.103C158.206 378.491 158.826 378.227 159.583 378.31C159.828 378.337 160.01 378.389 160.13 378.467L160.001 379.635ZM160.422 382.192C160.501 381.472 160.713 380.839 161.057 380.295C161.405 379.751 161.848 379.35 162.385 379.093C162.927 378.836 163.522 378.743 164.17 378.814C165.171 378.924 165.941 379.36 166.481 380.121C167.026 380.882 167.235 381.838 167.108 382.988L167.099 383.077C167.02 383.792 166.811 384.421 166.472 384.961C166.138 385.497 165.698 385.896 165.151 386.157C164.609 386.418 164.007 386.513 163.346 386.44C162.349 386.33 161.578 385.895 161.034 385.134C160.494 384.373 160.287 383.422 160.412 382.28L160.422 382.192ZM161.669 382.48C161.58 383.296 161.696 383.971 162.018 384.506C162.344 385.042 162.824 385.344 163.458 385.414C164.097 385.484 164.632 385.291 165.062 384.834C165.494 384.372 165.759 383.691 165.858 382.789C165.947 381.983 165.826 381.309 165.495 380.769C165.17 380.224 164.69 379.917 164.056 379.847C163.436 379.779 162.908 379.971 162.473 380.423C162.038 380.875 161.77 381.561 161.669 382.48ZM169.646 386.995L168.389 386.856L169.197 379.504L170.454 379.642L169.646 386.995ZM169.309 377.543C169.331 377.339 169.411 377.174 169.549 377.047C169.691 376.92 169.885 376.87 170.13 376.897C170.374 376.924 170.552 377.015 170.664 377.169C170.775 377.323 170.82 377.502 170.797 377.706C170.775 377.91 170.693 378.073 170.551 378.195C170.409 378.317 170.216 378.365 169.971 378.338C169.727 378.311 169.548 378.222 169.436 378.073C169.329 377.923 169.287 377.747 169.309 377.543ZM171.769 383.445C171.893 382.317 172.26 381.441 172.869 380.816C173.48 380.186 174.217 379.918 175.082 380.013C175.943 380.108 176.593 380.477 177.031 381.121L177.452 377.289L178.709 377.427L177.562 387.864L176.407 387.737L176.432 386.943C175.862 387.503 175.128 387.734 174.231 387.636C173.38 387.542 172.723 387.117 172.26 386.36C171.802 385.604 171.635 384.664 171.758 383.541L171.769 383.445ZM173.01 383.726C172.919 384.56 173.019 385.231 173.312 385.74C173.604 386.249 174.054 386.537 174.661 386.603C175.458 386.691 176.08 386.397 176.525 385.722L176.896 382.345C176.597 381.61 176.057 381.2 175.278 381.115C174.662 381.047 174.155 381.232 173.759 381.67C173.362 382.108 173.113 382.793 173.01 383.726ZM188.863 379.086L188.746 380.153L188.515 380.128C187.534 380.038 186.723 380.243 186.082 380.741C185.44 381.239 185.018 381.992 184.815 383.001C185.402 382.461 186.146 382.24 187.048 382.339C187.908 382.434 188.561 382.812 189.006 383.476C189.456 384.14 189.628 384.952 189.523 385.912C189.411 386.931 189.043 387.716 188.418 388.266C187.798 388.817 187.022 389.041 186.089 388.939C185.142 388.835 184.414 388.388 183.904 387.598C183.396 386.804 183.204 385.834 183.33 384.688L183.383 384.206C183.583 382.385 184.123 381.037 185.004 380.161C185.889 379.282 187.1 378.915 188.639 379.062L188.863 379.086ZM186.722 383.362C186.292 383.315 185.881 383.401 185.49 383.619C185.099 383.837 184.812 384.134 184.629 384.508L184.578 384.97C184.489 385.785 184.6 386.462 184.912 387.001C185.224 387.539 185.655 387.839 186.203 387.899C186.769 387.961 187.236 387.802 187.603 387.42C187.975 387.039 188.198 386.511 188.272 385.836C188.347 385.157 188.242 384.591 187.957 384.138C187.677 383.68 187.266 383.422 186.722 383.362ZM197.324 385.765C197.162 387.237 196.79 388.304 196.209 388.964C195.627 389.625 194.802 389.896 193.733 389.779C192.677 389.663 191.934 389.228 191.504 388.475C191.073 387.717 190.926 386.641 191.06 385.249L191.245 383.57C191.405 382.116 191.775 381.063 192.355 380.412C192.936 379.761 193.763 379.494 194.836 379.612C195.901 379.729 196.647 380.157 197.075 380.896C197.503 381.631 197.646 382.71 197.503 384.134L197.324 385.765ZM196.255 383.908C196.372 382.843 196.308 382.052 196.062 381.535C195.817 381.012 195.371 380.716 194.723 380.645C194.08 380.574 193.584 380.765 193.236 381.217C192.889 381.67 192.655 382.398 192.535 383.403L192.314 385.414C192.197 386.483 192.264 387.291 192.516 387.836C192.773 388.378 193.216 388.683 193.846 388.753C194.466 388.821 194.953 388.631 195.304 388.184C195.661 387.737 195.902 386.998 196.029 385.967L196.255 383.908ZM205.138 386.624C204.976 388.096 204.605 389.162 204.023 389.823C203.442 390.483 202.616 390.755 201.547 390.637C200.492 390.521 199.749 390.087 199.318 389.333C198.888 388.575 198.74 387.5 198.875 386.107L199.059 384.429C199.219 382.975 199.589 381.922 200.169 381.271C200.75 380.619 201.577 380.352 202.651 380.47C203.715 380.587 204.461 381.016 204.889 381.755C205.317 382.49 205.46 383.569 205.317 384.993L205.138 386.624ZM204.07 384.766C204.187 383.702 204.122 382.911 203.877 382.393C203.631 381.871 203.185 381.574 202.537 381.503C201.894 381.433 201.398 381.623 201.051 382.076C200.703 382.528 200.469 383.257 200.35 384.261L200.129 386.273C200.011 387.342 200.078 388.149 200.33 388.695C200.587 389.237 201.03 389.542 201.66 389.611C202.281 389.679 202.767 389.49 203.119 389.043C203.475 388.596 203.716 387.857 203.844 386.825L204.07 384.766ZM215.999 387.666L211.848 387.21L211.367 391.579L210.063 391.435L211.15 381.542L217.279 382.215L217.161 383.289L212.337 382.759L211.965 386.143L216.117 386.599L215.999 387.666ZM217.487 388.462C217.566 387.742 217.777 387.109 218.122 386.565C218.47 386.021 218.913 385.62 219.45 385.363C219.992 385.106 220.587 385.013 221.234 385.084C222.236 385.194 223.006 385.63 223.546 386.391C224.09 387.152 224.3 388.108 224.173 389.258L224.163 389.347C224.085 390.062 223.876 390.691 223.537 391.231C223.203 391.767 222.762 392.166 222.216 392.427C221.674 392.688 221.072 392.783 220.41 392.71C219.414 392.6 218.643 392.165 218.099 391.404C217.559 390.643 217.352 389.692 217.477 388.55L217.487 388.462ZM218.734 388.75C218.645 389.566 218.761 390.241 219.082 390.776C219.409 391.312 219.889 391.614 220.523 391.684C221.162 391.754 221.697 391.561 222.127 391.104C222.559 390.642 222.824 389.961 222.923 389.059C223.011 388.253 222.89 387.579 222.56 387.039C222.235 386.494 221.755 386.187 221.121 386.117C220.5 386.049 219.973 386.241 219.538 386.693C219.103 387.145 218.835 387.831 218.734 388.75ZM229.583 387.281C229.396 387.228 229.191 387.19 228.969 387.165C228.145 387.075 227.547 387.364 227.175 388.034L226.602 393.253L225.345 393.115L226.153 385.762L227.376 385.897L227.303 386.748C227.787 386.137 228.408 385.873 229.164 385.956C229.409 385.983 229.591 386.035 229.711 386.112L229.583 387.281ZM232.051 386.41L231.995 387.229C232.604 386.655 233.366 386.417 234.281 386.518C235.309 386.631 235.966 387.102 236.251 387.931C236.534 387.604 236.883 387.354 237.296 387.179C237.714 387.005 238.19 386.947 238.725 387.006C240.338 387.183 241.064 388.127 240.903 389.838L240.362 394.765L239.105 394.626L239.638 389.775C239.696 389.249 239.619 388.844 239.407 388.56C239.196 388.271 238.807 388.095 238.241 388.033C237.774 387.981 237.371 388.079 237.032 388.326C236.694 388.569 236.474 388.923 236.372 389.388L235.836 394.267L234.573 394.128L235.102 389.311C235.219 388.242 234.755 387.65 233.708 387.535C232.884 387.444 232.281 387.733 231.901 388.402L231.311 393.77L230.054 393.632L230.862 386.28L232.051 386.41ZM246.804 395.472C246.747 395.319 246.717 395.055 246.712 394.678C246.061 395.221 245.33 395.448 244.519 395.359C243.794 395.279 243.221 395.01 242.799 394.551C242.382 394.088 242.209 393.542 242.278 392.912C242.362 392.146 242.717 391.585 243.343 391.227C243.974 390.866 244.818 390.743 245.873 390.859L247.096 390.993L247.16 390.416C247.208 389.976 247.115 389.613 246.881 389.326C246.647 389.034 246.274 388.86 245.762 388.804C245.314 388.755 244.925 388.827 244.597 389.02C244.268 389.213 244.086 389.47 244.051 389.792L242.787 389.653C242.828 389.286 242.995 388.947 243.291 388.636C243.592 388.32 243.975 388.087 244.441 387.937C244.911 387.787 245.413 387.741 245.948 387.8C246.795 387.893 247.435 388.179 247.869 388.657C248.303 389.131 248.488 389.741 248.424 390.486L248.053 393.87C247.978 394.545 248.005 395.091 248.134 395.508L248.122 395.617L246.804 395.472ZM244.823 394.285C245.217 394.328 245.602 394.267 245.978 394.102C246.353 393.937 246.638 393.7 246.833 393.392L246.999 391.883L246.013 391.775C244.473 391.606 243.653 391.972 243.554 392.873C243.511 393.267 243.609 393.59 243.847 393.841C244.085 394.092 244.411 394.24 244.823 394.285ZM252.543 386.86L252.348 388.64L253.72 388.791L253.613 389.763L252.241 389.612L251.74 394.172C251.707 394.466 251.744 394.695 251.85 394.858C251.957 395.016 252.157 395.111 252.451 395.144C252.596 395.16 252.799 395.154 253.058 395.128L252.946 396.147C252.606 396.202 252.279 396.211 251.967 396.177C251.405 396.115 251 395.899 250.752 395.528C250.504 395.157 250.414 394.659 250.483 394.033L250.984 389.474L249.645 389.327L249.752 388.355L251.091 388.502L251.286 386.722L252.543 386.86Z" fill="black"/>
<g filter="url(#filter1_d)">
<rect x="37" y="38" width="343.094" height="419" fill="white"/>
</g>
<g filter="url(#filter2_i)">
<rect x="55.2173" y="62.29" width="305.141" height="306.659" fill="url(#paint0_linear)"/>
</g>
<path d="M182.332 400.962C182.733 400.841 183.111 400.757 183.466 400.71V391.764C183.074 391.708 182.696 391.619 182.332 391.498V391.33H185.902V391.512C185.584 391.615 185.202 391.699 184.754 391.764V400.71C185.136 400.766 185.519 400.855 185.902 400.976V401.13H182.332V400.962ZM192.868 401.27C192.121 401.27 191.552 401.097 191.16 400.752C190.768 400.407 190.572 399.907 190.572 399.254C190.572 398.535 190.828 398.017 191.342 397.7C191.855 397.373 192.508 397.21 193.302 397.21H195.374V396.09C195.374 395.558 195.215 395.166 194.898 394.914C194.58 394.662 194.132 394.536 193.554 394.536C193.19 394.536 192.812 394.592 192.42 394.704C192.037 394.807 191.682 394.942 191.356 395.11L191.258 394.676C191.631 394.48 192.051 394.326 192.518 394.214C192.994 394.093 193.479 394.032 193.974 394.032C194.804 394.032 195.458 394.214 195.934 394.578C196.41 394.933 196.648 395.409 196.648 396.006V400.598C196.974 400.663 197.296 400.738 197.614 400.822V400.934L195.374 401.158V400.136C194.991 400.547 194.58 400.841 194.142 401.018C193.712 401.186 193.288 401.27 192.868 401.27ZM193.316 400.752C193.698 400.752 194.086 400.635 194.478 400.402C194.879 400.159 195.178 399.879 195.374 399.562V397.714H193.61C193.012 397.714 192.564 397.849 192.266 398.12C191.967 398.381 191.818 398.755 191.818 399.24C191.818 399.744 191.953 400.122 192.224 400.374C192.504 400.626 192.868 400.752 193.316 400.752ZM209.557 400.71C209.93 400.766 210.303 400.855 210.677 400.976V401.13H207.219V400.976C207.648 400.836 208.003 400.747 208.283 400.71V396.118C208.283 395.558 208.147 395.157 207.877 394.914C207.615 394.662 207.261 394.536 206.813 394.536C206.477 394.536 206.15 394.634 205.833 394.83C205.515 395.017 205.226 395.269 204.965 395.586C204.993 395.726 205.007 395.866 205.007 396.006V400.71C205.371 400.766 205.721 400.855 206.057 400.976V401.13H202.739V400.976C203.177 400.836 203.527 400.747 203.789 400.71V396.118C203.789 395.063 203.308 394.536 202.347 394.536C202.011 394.536 201.679 394.634 201.353 394.83C201.035 395.017 200.751 395.273 200.499 395.6V400.71C200.872 400.766 201.245 400.855 201.619 400.976V401.13H198.119V400.976C198.492 400.855 198.865 400.766 199.239 400.71V394.634C198.847 394.559 198.52 394.475 198.259 394.382V394.284L200.499 394.046V395.054C200.769 394.774 201.091 394.536 201.465 394.34C201.847 394.135 202.267 394.032 202.725 394.032C203.247 394.032 203.691 394.135 204.055 394.34C204.428 394.536 204.694 394.821 204.853 395.194C205.123 394.867 205.464 394.592 205.875 394.368C206.285 394.144 206.743 394.032 207.247 394.032C207.937 394.032 208.493 394.209 208.913 394.564C209.342 394.919 209.557 395.399 209.557 396.006V400.71ZM226.483 400.71C226.856 400.766 227.229 400.855 227.603 400.976V401.13H224.145V400.976C224.574 400.836 224.929 400.747 225.209 400.71V396.118C225.209 395.558 225.073 395.157 224.803 394.914C224.541 394.662 224.187 394.536 223.739 394.536C223.403 394.536 223.076 394.634 222.759 394.83C222.441 395.017 222.152 395.269 221.891 395.586C221.919 395.726 221.933 395.866 221.933 396.006V400.71C222.297 400.766 222.647 400.855 222.983 400.976V401.13H219.665V400.976C220.103 400.836 220.453 400.747 220.715 400.71V396.118C220.715 395.063 220.234 394.536 219.273 394.536C218.937 394.536 218.605 394.634 218.279 394.83C217.961 395.017 217.677 395.273 217.425 395.6V400.71C217.798 400.766 218.171 400.855 218.545 400.976V401.13H215.045V400.976C215.418 400.855 215.791 400.766 216.165 400.71V394.634C215.773 394.559 215.446 394.475 215.185 394.382V394.284L217.425 394.046V395.054C217.695 394.774 218.017 394.536 218.391 394.34C218.773 394.135 219.193 394.032 219.651 394.032C220.173 394.032 220.617 394.135 220.981 394.34C221.354 394.536 221.62 394.821 221.779 395.194C222.049 394.867 222.39 394.592 222.801 394.368C223.211 394.144 223.669 394.032 224.173 394.032C224.863 394.032 225.419 394.209 225.839 394.564C226.268 394.919 226.483 395.399 226.483 396.006V400.71ZM234.928 397.658H229.538C229.547 398.573 229.781 399.324 230.238 399.912C230.705 400.5 231.377 400.794 232.254 400.794C232.627 400.794 233.015 400.733 233.416 400.612C233.827 400.481 234.181 400.313 234.48 400.108L234.606 400.472C234.335 400.696 233.962 400.887 233.486 401.046C233.019 401.195 232.506 401.27 231.946 401.27C231.209 401.27 230.56 401.121 230 400.822C229.449 400.514 229.02 400.089 228.712 399.548C228.413 398.997 228.264 398.367 228.264 397.658C228.264 396.51 228.577 395.619 229.202 394.984C229.837 394.349 230.705 394.032 231.806 394.032C232.506 394.032 233.089 394.181 233.556 394.48C234.023 394.779 234.368 395.18 234.592 395.684C234.816 396.179 234.928 396.729 234.928 397.336V397.658ZM233.808 397.168C233.808 396.748 233.743 396.337 233.612 395.936C233.481 395.535 233.267 395.203 232.968 394.942C232.679 394.671 232.301 394.536 231.834 394.536C231.134 394.536 230.593 394.783 230.21 395.278C229.837 395.773 229.617 396.403 229.552 397.168H233.808Z" fill="black"/>
<defs>
<filter id="filter0_d" x="0.90625" y="0.795898" width="411.608" height="478.909" filterUnits="userSpaceOnUse" color-interpolation-filters="sRGB">
<feFlood flood-opacity="0" result="BackgroundImageFix"/>
<feColorMatrix in="SourceAlpha" type="matrix" values="0 0 0 0 0 0 0 0 0 0 0 0 0 0 0 0 0 0 127 0" result="hardAlpha"/>
<feOffset/>
<feGaussianBlur stdDeviation="6"/>
<feColorMatrix type="matrix" values="0 0 0 0 0 0 0 0 0 0 0 0 0 0 0 0 0 0 0.1 0"/>
<feBlend mode="normal" in2="BackgroundImageFix" result="effect1_dropShadow"/>
<feBlend mode="normal" in="SourceGraphic" in2="effect1_dropShadow" result="shape"/>
</filter>
<filter id="filter1_d" x="25" y="26" width="367.094" height="443" filterUnits="userSpaceOnUse" color-interpolation-filters="sRGB">
<feFlood flood-opacity="0" result="BackgroundImageFix"/>
<feColorMatrix in="SourceAlpha" type="matrix" values="0 0 0 0 0 0 0 0 0 0 0 0 0 0 0 0 0 0 127 0" result="hardAlpha"/>
<feOffset/>
<feGaussianBlur stdDeviation="6"/>
<feColorMatrix type="matrix" values="0 0 0 0 0 0 0 0 0 0 0 0 0 0 0 0 0 0 0.1 0"/>
<feBlend mode="normal" in2="BackgroundImageFix" result="effect1_dropShadow"/>
<feBlend mode="normal" in="SourceGraphic" in2="effect1_dropShadow" result="shape"/>
</filter>
<filter id="filter2_i" x="55.2173" y="62.29" width="305.141" height="307.659" filterUnits="userSpaceOnUse" color-interpolation-filters="sRGB">
<feFlood flood-opacity="0" result="BackgroundImageFix"/>
<feBlend mode="normal" in="SourceGraphic" in2="BackgroundImageFix" result="shape"/>
<feColorMatrix in="SourceAlpha" type="matrix" values="0 0 0 0 0 0 0 0 0 0 0 0 0 0 0 0 0 0 127 0" result="hardAlpha"/>
<feOffset dy="1"/>
<feGaussianBlur stdDeviation="2"/>
<feComposite in2="hardAlpha" operator="arithmetic" k2="-1" k3="1"/>
<feColorMatrix type="matrix" values="0 0 0 0 0 0 0 0 0 0 0 0 0 0 0 0 0 0 0.18 0"/>
<feBlend mode="normal" in2="shape" result="effect1_innerShadow"/>
</filter>
<linearGradient id="paint0_linear" x1="285" y1="147" x2="26.9999" y2="499" gradientUnits="userSpaceOnUse">
<stop stop-color="#372920"/>
<stop offset="1" stop-color="#BB6705"/>
</linearGradient>
</defs>
</svg>
