<svg width="32" height="32" viewBox="0 0 32 32" fill="none" xmlns="http://www.w3.org/2000/svg">
<g clip-path="url(#clip0)">
<rect width="32" height="32" rx="6" fill="#4B3E35"/>
<path d="M12.4136 25.23C12.4136 25.4647 12.3329 25.6553 12.1716 25.802C12.0249 25.934 11.8342 26 11.5996 26H6.64957C6.4149 26 6.20957 25.934 6.03357 25.802C5.87224 25.6553 5.79157 25.4647 5.79157 25.23V18.256C5.79157 18.0507 5.87224 17.8673 6.03357 17.706C6.20957 17.5447 6.4149 17.464 6.64957 17.464H11.5996C11.8342 17.464 12.0249 17.5447 12.1716 17.706C12.3329 17.8673 12.4136 18.0507 12.4136 18.256V25.23ZM10.0376 24.9V18.564H8.23357V24.9H10.0376ZM17.8569 24.988V23.514H20.2769V25.274C20.2769 25.494 20.1962 25.67 20.0349 25.802C19.8735 25.934 19.6829 26 19.4629 26H14.4909C14.2709 26 14.0729 25.934 13.8969 25.802C13.7355 25.67 13.6549 25.494 13.6549 25.274V18.278C13.6549 18.0727 13.7355 17.8893 13.8969 17.728C14.0729 17.5667 14.2709 17.486 14.4909 17.486H19.4629C19.6829 17.486 19.8735 17.5667 20.0349 17.728C20.1962 17.8893 20.2769 18.0727 20.2769 18.278V20.016H17.8569V18.586H16.0529V24.988H17.8569ZM25.3466 26H22.9266V18.498H20.7926V17.464H27.4586V18.498H25.3466V20.104V23.558V24.13V26Z" fill="#FCFBF5"/>
<path d="M11.0277 9.13778C11.2144 9.13778 11.381 9.21112 11.5277 9.35778C11.6877 9.49112 11.7677 9.65112 11.7677 9.83778V13.3178C11.7677 13.5044 11.6877 13.6644 11.5277 13.7978C11.381 13.9178 11.2144 13.9778 11.0277 13.9778H6.5277C6.3277 13.9778 6.15436 13.9178 6.0077 13.7978C5.86103 13.6644 5.7877 13.5044 5.7877 13.3178V6.95778C5.7877 6.77112 5.86103 6.61778 6.0077 6.49778C6.15436 6.36445 6.3277 6.29778 6.5277 6.29778H11.0277C11.2144 6.29778 11.381 6.36445 11.5277 6.49778C11.6877 6.61778 11.7677 6.77112 11.7677 6.95778C11.7677 7.23778 11.7677 7.43112 11.7677 7.53778C11.7677 7.64445 11.7677 7.73112 11.7677 7.79778C11.7677 7.86445 11.761 7.94445 11.7477 8.03778C11.7477 8.13112 11.7477 8.31778 11.7477 8.59778H9.5677V7.25778H7.9877V9.13778H11.0277ZM7.9877 12.9778H9.5677V10.0778H7.9877V12.9778Z" fill="#EC371F"/>
<path d="M18.7672 14H16.5872V7.36L15.5872 7.88V6.88L16.7672 6.3H18.7672V14ZM25.5149 14H23.3349V12.72H19.4149L19.4349 11.62L23.0749 6.32L25.5149 6.3V8.7V11.7H26.2749L26.2549 12.72H25.5149V14ZM23.3349 7.76L21.7549 11.7H23.3349V7.76Z" fill="#FCFBF5"/>
</g>
<defs>
<clipPath id="clip0">
<rect width="32" height="32" fill="white"/>
</clipPath>
</defs>
</svg>
