<svg width="120" height="120" viewBox="0 0 120 120" fill="none" xmlns="http://www.w3.org/2000/svg">
<g clip-path="url(#clip0)">
<rect width="120" height="120" rx="22.5" fill="#4B3E35"/>
<path d="M46.5509 93.6125C46.5509 94.4925 46.2484 95.2075 45.6434 95.7575C45.0934 96.2525 44.3784 96.5 43.4984 96.5H24.9359C24.0559 96.5 23.2859 96.2525 22.6259 95.7575C22.0209 95.2075 21.7184 94.4925 21.7184 93.6125V67.46C21.7184 66.69 22.0209 66.0025 22.6259 65.3975C23.2859 64.7925 24.0559 64.49 24.9359 64.49H43.4984C44.3784 64.49 45.0934 64.7925 45.6434 65.3975C46.2484 66.0025 46.5509 66.69 46.5509 67.46V93.6125ZM37.6409 92.375V68.615H30.8759V92.375H37.6409ZM66.9632 92.705V87.1775H76.0382V93.7775C76.0382 94.6025 75.7357 95.2625 75.1307 95.7575C74.5257 96.2525 73.8107 96.5 72.9857 96.5H54.3407C53.5157 96.5 52.7732 96.2525 52.1132 95.7575C51.5082 95.2625 51.2057 94.6025 51.2057 93.7775V67.5425C51.2057 66.7725 51.5082 66.085 52.1132 65.48C52.7732 64.875 53.5157 64.5725 54.3407 64.5725H72.9857C73.8107 64.5725 74.5257 64.875 75.1307 65.48C75.7357 66.085 76.0382 66.7725 76.0382 67.5425V74.06H66.9632V68.6975H60.1982V92.705H66.9632ZM95.0499 96.5H85.9749V68.3675H77.9724V64.49H102.97V68.3675H95.0499V74.39V87.3425V89.4875V96.5Z" fill="#FCFBF5"/>
<path d="M41.3539 34.5167C42.0539 34.5167 42.6789 34.7917 43.2289 35.3417C43.8289 35.8417 44.1289 36.4417 44.1289 37.1417V50.1917C44.1289 50.8917 43.8289 51.4917 43.2289 51.9917C42.6789 52.4417 42.0539 52.6667 41.3539 52.6667H24.4789C23.7289 52.6667 23.0789 52.4417 22.5289 51.9917C21.9789 51.4917 21.7039 50.8917 21.7039 50.1917V26.3417C21.7039 25.6417 21.9789 25.0667 22.5289 24.6167C23.0789 24.1167 23.7289 23.8667 24.4789 23.8667H41.3539C42.0539 23.8667 42.6789 24.1167 43.2289 24.6167C43.8289 25.0667 44.1289 25.6417 44.1289 26.3417C44.1289 27.3917 44.1289 28.1167 44.1289 28.5167C44.1289 28.9167 44.1289 29.2417 44.1289 29.4917C44.1289 29.7417 44.1039 30.0417 44.0539 30.3917C44.0539 30.7417 44.0539 31.4417 44.0539 32.4917H35.8789V27.4667H29.9539V34.5167H41.3539ZM29.9539 48.9167H35.8789V38.0417H29.9539V48.9167Z" fill="#EC371F"/>
<path d="M70.377 52.5H62.2021V27.6L58.4521 29.55V25.8L62.8771 23.625H70.377V52.5ZM95.6808 52.5H87.5058V47.7H72.8058L72.8808 43.575L86.5308 23.7L95.6808 23.625V32.625V43.875H98.5308L98.4558 47.7H95.6808V52.5ZM87.5058 29.1L81.5808 43.875H87.5058V29.1Z" fill="#FCFBF5"/>
</g>
<defs>
<clipPath id="clip0">
<rect width="120" height="120" fill="white"/>
</clipPath>
</defs>
</svg>
