<svg width="270" height="270" viewBox="0 0 270 270" fill="none" xmlns="http://www.w3.org/2000/svg">
<g clip-path="url(#clip0)">
<rect width="270" height="270" rx="50.625" fill="#4B3E35"/>
<path d="M104.74 210.878C104.74 212.858 104.059 214.467 102.698 215.704C101.46 216.818 99.8514 217.375 97.8714 217.375H56.1058C54.1258 217.375 52.3933 216.818 50.9083 215.704C49.547 214.467 48.8664 212.858 48.8664 210.878V152.035C48.8664 150.303 49.547 148.756 50.9083 147.394C52.3933 146.033 54.1258 145.353 56.1058 145.353H97.8714C99.8514 145.353 101.46 146.033 102.698 147.394C104.059 148.756 104.74 150.303 104.74 152.035V210.878ZM84.692 208.094V154.634H69.4708V208.094H84.692ZM150.667 208.836V196.399H171.086V211.249C171.086 213.106 170.405 214.591 169.044 215.704C167.683 216.818 166.074 217.375 164.218 217.375H122.267C120.41 217.375 118.74 216.818 117.255 215.704C115.893 214.591 115.213 213.106 115.213 211.249V152.221C115.213 150.488 115.893 148.941 117.255 147.58C118.74 146.219 120.41 145.538 122.267 145.538H164.218C166.074 145.538 167.683 146.219 169.044 147.58C170.405 148.941 171.086 150.488 171.086 152.221V166.885H150.667V154.819H135.446V208.836H150.667ZM213.862 217.375H193.444V154.077H175.438V145.353H231.682V154.077H213.862V167.628V196.771V201.597V217.375Z" fill="#FCFBF5"/>
<path d="M93.0464 77.1625C94.6214 77.1625 96.0276 77.7812 97.2651 79.0187C98.6151 80.1437 99.2901 81.4937 99.2901 83.0687V112.431C99.2901 114.006 98.6151 115.356 97.2651 116.481C96.0276 117.494 94.6214 118 93.0464 118H55.0776C53.3901 118 51.9276 117.494 50.6901 116.481C49.4526 115.356 48.8339 114.006 48.8339 112.431V58.7687C48.8339 57.1937 49.4526 55.9 50.6901 54.8875C51.9276 53.7625 53.3901 53.2 55.0776 53.2H93.0464C94.6214 53.2 96.0276 53.7625 97.2651 54.8875C98.6151 55.9 99.2901 57.1937 99.2901 58.7687C99.2901 61.1312 99.2901 62.7625 99.2901 63.6625C99.2901 64.5625 99.2901 65.2937 99.2901 65.8562C99.2901 66.4187 99.2339 67.0937 99.1214 67.8812C99.1214 68.6687 99.1214 70.2437 99.1214 72.6062H80.7276V61.3H67.3964V77.1625H93.0464ZM67.3964 109.562H80.7276V85.0937H67.3964V109.562Z" fill="#EC371F"/>
<path d="M158.348 117.875H139.954V61.85L131.517 66.2375V57.8L141.473 52.9062H158.348V117.875ZM215.282 117.875H196.888V107.075H163.813L163.982 97.7937L194.694 53.075L215.282 52.9062V73.1562V98.4687H221.694L221.525 107.075H215.282V117.875ZM196.888 65.225L183.557 98.4687H196.888V65.225Z" fill="#FCFBF5"/>
</g>
<defs>
<clipPath id="clip0">
<rect width="270" height="270" fill="white"/>
</clipPath>
</defs>
</svg>
