<svg width="196" height="196" viewBox="0 0 196 196" fill="none" xmlns="http://www.w3.org/2000/svg">
<g clip-path="url(#clip0)">
<rect width="196" height="196" rx="36.75" fill="#4B3E35"/>
<path d="M76.0331 152.534C76.0331 153.971 75.539 155.139 74.5509 156.037C73.6525 156.846 72.4847 157.25 71.0474 157.25H40.7286C39.2913 157.25 38.0336 156.846 36.9556 156.037C35.9675 155.139 35.4734 153.971 35.4734 152.534V109.818C35.4734 108.56 35.9675 107.437 36.9556 106.449C38.0336 105.461 39.2913 104.967 40.7286 104.967H71.0474C72.4847 104.967 73.6525 105.461 74.5509 106.449C75.539 107.437 76.0331 108.56 76.0331 109.818V152.534ZM61.4801 150.512V111.704H50.4306V150.512H61.4801ZM109.373 151.051V142.023H124.196V152.803C124.196 154.151 123.702 155.229 122.713 156.037C121.725 156.846 120.557 157.25 119.21 157.25H88.7565C87.409 157.25 86.1962 156.846 85.1182 156.037C84.1301 155.229 83.636 154.151 83.636 152.803V109.953C83.636 108.695 84.1301 107.572 85.1182 106.584C86.1962 105.596 87.409 105.102 88.7565 105.102H119.21C120.557 105.102 121.725 105.596 122.713 106.584C123.702 107.572 124.196 108.695 124.196 109.953V120.598H109.373V111.839H98.3237V151.051H109.373ZM155.248 157.25H140.426V111.3H127.355V104.967H168.184V111.3H155.248V121.137V142.293V145.796V157.25Z" fill="#FCFBF5"/>
<path d="M67.5448 55.8439C68.6881 55.8439 69.7089 56.2931 70.6073 57.1914C71.5873 58.0081 72.0773 58.9881 72.0773 60.1314V81.4464C72.0773 82.5897 71.5873 83.5697 70.6073 84.3864C69.7089 85.1214 68.6881 85.4889 67.5448 85.4889H39.9823C38.7573 85.4889 37.6956 85.1214 36.7973 84.3864C35.8989 83.5697 35.4498 82.5897 35.4498 81.4464V42.4914C35.4498 41.3481 35.8989 40.4089 36.7973 39.6739C37.6956 38.8572 38.7573 38.4489 39.9823 38.4489H67.5448C68.6881 38.4489 69.7089 38.8572 70.6073 39.6739C71.5873 40.4089 72.0773 41.3481 72.0773 42.4914C72.0773 44.2064 72.0773 45.3906 72.0773 46.0439C72.0773 46.6972 72.0773 47.2281 72.0773 47.6364C72.0773 48.0447 72.0364 48.5347 71.9548 49.1064C71.9548 49.6781 71.9548 50.8214 71.9548 52.5364H58.6023V44.3289H48.9248V55.8439H67.5448ZM48.9248 79.3639H58.6023V61.6014H48.9248V79.3639Z" fill="#EC371F"/>
<path d="M114.949 86.25H101.597V45.58L95.4717 48.765V42.64L102.699 39.0875H114.949V86.25ZM156.279 86.25H142.926V78.41H118.916L119.039 71.6725L141.334 39.21L156.279 39.0875V53.7875V72.1625H160.934L160.811 78.41H156.279V86.25ZM142.926 48.03L133.249 72.1625H142.926V48.03Z" fill="#FCFBF5"/>
</g>
<defs>
<clipPath id="clip0">
<rect width="196" height="196" fill="white"/>
</clipPath>
</defs>
</svg>
