<svg width="96" height="96" viewBox="0 0 96 96" fill="none" xmlns="http://www.w3.org/2000/svg">
<g clip-path="url(#clip0)">
<rect width="96" height="96" rx="18" fill="#4B3E35"/>
<path d="M37.2407 74.69C37.2407 75.394 36.9987 75.966 36.5147 76.406C36.0747 76.802 35.5027 77 34.7987 77H19.9487C19.2447 77 18.6287 76.802 18.1007 76.406C17.6167 75.966 17.3747 75.394 17.3747 74.69V53.768C17.3747 53.152 17.6167 52.602 18.1007 52.118C18.6287 51.634 19.2447 51.392 19.9487 51.392H34.7987C35.5027 51.392 36.0747 51.634 36.5147 52.118C36.9987 52.602 37.2407 53.152 37.2407 53.768V74.69ZM30.1127 73.7V54.692H24.7007V73.7H30.1127ZM53.5706 73.964V69.542H60.8306V74.822C60.8306 75.482 60.5886 76.01 60.1046 76.406C59.6206 76.802 59.0486 77 58.3886 77H43.4726C42.8126 77 42.2186 76.802 41.6906 76.406C41.2066 76.01 40.9646 75.482 40.9646 74.822V53.834C40.9646 53.218 41.2066 52.668 41.6906 52.184C42.2186 51.7 42.8126 51.458 43.4726 51.458H58.3886C59.0486 51.458 59.6206 51.7 60.1046 52.184C60.5886 52.668 60.8306 53.218 60.8306 53.834V59.048H53.5706V54.758H48.1586V73.964H53.5706ZM76.0399 77H68.7799V54.494H62.3779V51.392H82.3759V54.494H76.0399V59.312V69.674V71.39V77Z" fill="#FCFBF5"/>
<path d="M33.0831 27.4133C33.6431 27.4133 34.1431 27.6333 34.5831 28.0733C35.0631 28.4733 35.3031 28.9533 35.3031 29.5133V39.9533C35.3031 40.5133 35.0631 40.9933 34.5831 41.3933C34.1431 41.7533 33.6431 41.9333 33.0831 41.9333H19.5831C18.9831 41.9333 18.4631 41.7533 18.0231 41.3933C17.5831 40.9933 17.3631 40.5133 17.3631 39.9533V20.8733C17.3631 20.3133 17.5831 19.8533 18.0231 19.4933C18.4631 19.0933 18.9831 18.8933 19.5831 18.8933H33.0831C33.6431 18.8933 34.1431 19.0933 34.5831 19.4933C35.0631 19.8533 35.3031 20.3133 35.3031 20.8733C35.3031 21.7133 35.3031 22.2933 35.3031 22.6133C35.3031 22.9333 35.3031 23.1933 35.3031 23.3933C35.3031 23.5933 35.2831 23.8333 35.2431 24.1133C35.2431 24.3933 35.2431 24.9533 35.2431 25.7933H28.7031V21.7733H23.9631V27.4133H33.0831ZM23.9631 38.9333H28.7031V30.2333H23.9631V38.9333Z" fill="#EC371F"/>
<path d="M56.3015 42H49.7615V22.08L46.7615 23.64V20.64L50.3015 18.9H56.3015V42ZM76.5445 42H70.0045V38.16H58.2445L58.3045 34.86L69.2245 18.96L76.5445 18.9V26.1V35.1H78.8245L78.7645 38.16H76.5445V42ZM70.0045 23.28L65.2645 35.1H70.0045V23.28Z" fill="#FCFBF5"/>
</g>
<defs>
<clipPath id="clip0">
<rect width="96" height="96" fill="white"/>
</clipPath>
</defs>
</svg>
