<svg width="16" height="16" viewBox="0 0 16 16" fill="none" xmlns="http://www.w3.org/2000/svg">
<g clip-path="url(#clip0)">
<rect width="16" height="16" rx="3" fill="#4B3E35"/>
<path d="M6.20679 12.615C6.20679 12.7323 6.16645 12.8277 6.08579 12.901C6.01245 12.967 5.91712 13 5.79979 13H3.32479C3.20745 13 3.10479 12.967 3.01679 12.901C2.93612 12.8277 2.89579 12.7323 2.89579 12.615V9.128C2.89579 9.02533 2.93612 8.93367 3.01679 8.853C3.10479 8.77233 3.20745 8.732 3.32479 8.732H5.79979C5.91712 8.732 6.01245 8.77233 6.08579 8.853C6.16645 8.93367 6.20679 9.02533 6.20679 9.128V12.615ZM5.01879 12.45V9.282H4.11679V12.45H5.01879ZM8.92843 12.494V11.757H10.1384V12.637C10.1384 12.747 10.0981 12.835 10.0174 12.901C9.93676 12.967 9.84143 13 9.73143 13H7.24543C7.13543 13 7.03643 12.967 6.94843 12.901C6.86776 12.835 6.82743 12.747 6.82743 12.637V9.139C6.82743 9.03633 6.86776 8.94467 6.94843 8.864C7.03643 8.78333 7.13543 8.743 7.24543 8.743H9.73143C9.84143 8.743 9.93676 8.78333 10.0174 8.864C10.0981 8.94467 10.1384 9.03633 10.1384 9.139V10.008H8.92843V9.293H8.02643V12.494H8.92843ZM12.6733 13H11.4633V9.249H10.3963V8.732H13.7293V9.249H12.6733V10.052V11.779V12.065V13Z" fill="#FCFBF5"/>
<path d="M5.51385 5.06889C5.60718 5.06889 5.69051 5.10556 5.76385 5.17889C5.84385 5.24556 5.88385 5.32556 5.88385 5.41889V7.15889C5.88385 7.25222 5.84385 7.33222 5.76385 7.39889C5.69051 7.45889 5.60718 7.48889 5.51385 7.48889H3.26385C3.16385 7.48889 3.07718 7.45889 3.00385 7.39889C2.93051 7.33222 2.89385 7.25222 2.89385 7.15889V3.97889C2.89385 3.88556 2.93051 3.80889 3.00385 3.74889C3.07718 3.68222 3.16385 3.64889 3.26385 3.64889H5.51385C5.60718 3.64889 5.69051 3.68222 5.76385 3.74889C5.84385 3.80889 5.88385 3.88556 5.88385 3.97889C5.88385 4.11889 5.88385 4.21556 5.88385 4.26889C5.88385 4.32222 5.88385 4.36556 5.88385 4.39889C5.88385 4.43222 5.88051 4.47222 5.87385 4.51889C5.87385 4.56556 5.87385 4.65889 5.87385 4.79889H4.78385V4.12889H3.99385V5.06889H5.51385ZM3.99385 6.98889H4.78385V5.53889H3.99385V6.98889Z" fill="#EC371F"/>
<path d="M9.38362 7H8.29362V3.68L7.79362 3.94V3.44L8.38362 3.15H9.38362V7ZM12.7575 7H11.6675V6.36H9.70745L9.71745 5.81L11.5375 3.16L12.7575 3.15V4.35V5.85H13.1375L13.1275 6.36H12.7575V7ZM11.6675 3.88L10.8775 5.85H11.6675V3.88Z" fill="#FCFBF5"/>
</g>
<defs>
<clipPath id="clip0">
<rect width="16" height="16" fill="white"/>
</clipPath>
</defs>
</svg>
