<svg width="1152" height="585" viewBox="0 0 1152 585" fill="none" xmlns="http://www.w3.org/2000/svg">
<path d="M984.799 20.528L983.302 22.521L983.598 25.3745L984.971 26.4058L995.784 47.0967L993.117 50.6468L957.071 66.5344L951.362 68.2864L948.086 68.7485L935.308 45.6066L934.34 40.008L931.376 39.5353L929.068 40.9189L928.242 43.7082L929.614 44.7394L931.549 47.3619L952.69 88.0882L921.23 104.498L919.92 106.242L917.658 106.004L915.053 105.704L913.556 107.697L914.57 110.115L916.926 110.228L932.4 112.889L935.956 113.222L945.253 111.243L964.314 107.44L979.167 134.576L980.01 137.353L980.291 142.436L983.24 146.307L986.157 146.842L1002.35 177.52L1013.29 198.305L1017.6 205.437L1022.9 209.421L1030.01 210.868L1041.87 201.456L1053.69 190.266L1061.21 182.468L1065.73 172.031L1064.56 162.285L1059.74 152.33L1055.52 146.243L1032 103.236L1034.55 96.9733L1041.55 82.4551L1044.39 73.4799L1043.92 70.9847L1040.18 68.1721L1037.9 68.6048L1024.41 74.3502L1019.42 75.2772L1015.8 74.8969L989.292 25.8519L988.574 21.6101L987.326 20.6726L984.799 20.528Z" stroke="#FCFBF5" stroke-width="2"/>
<path d="M237.793 493.151L236.008 494.49L233.454 494.222L232.532 492.992L214.021 483.298L210.841 485.682L196.592 517.933L195.019 523.041L194.603 525.973L215.306 537.428L220.317 538.299L220.737 540.952L219.497 543.017L217 543.755L216.078 542.525L213.732 540.792L177.297 521.837L162.584 549.982L161.022 551.153L161.233 553.178L161.5 555.51L159.715 556.848L157.551 555.938L157.452 553.83L155.083 539.978L154.787 536.794L156.566 528.475L159.985 511.418L135.708 498.101L133.224 497.345L128.675 497.089L125.212 494.447L124.735 491.835L97.2899 477.315L78.6951 467.509L72.315 463.65L68.7529 458.899L67.464 452.531L75.8976 441.929L85.9221 431.356L92.9076 424.634L102.254 420.595L110.976 421.651L119.882 425.974L125.327 429.749L163.802 450.842L169.409 448.558L182.41 442.303L190.445 439.77L192.678 440.191L195.192 443.545L194.803 445.582L189.65 457.654L188.817 462.121L189.154 465.36L233.031 489.126L236.827 489.772L237.665 490.889L237.793 493.151Z" stroke="#FCFBF5" stroke-width="2"/>
<path d="M191.155 125.628L191.488 148.447L188.53 150.155L188.019 149.27L186.382 150.215L183.145 146.352L168.883 146.073L139.864 172.858L133.621 178.907L128.283 181.146L124.14 181.093L118.571 179.588L114.051 175.539L106.499 167.255L94.1006 153.34L83.3741 141.158L80.0161 135.342L79.2904 130.45L80.0627 125.537L83.1815 120.618L90.5252 114.439L98.627 106.811L94.8422 102L93.1267 99.0289L93.2076 96.1163L95.6123 93.885L98.1842 93.8331L118.095 91.1041L144.514 67.0847L183.671 35.0366L206.158 18.598L250.02 80.1785L228.498 96.3975L191.155 125.628Z" stroke="#FCFBF5" stroke-width="2"/>
<path d="M968.793 462.812L968.46 439.993L971.419 438.284L971.93 439.169L973.566 438.225L976.804 442.087L991.065 442.367L1020.08 415.582L1026.33 409.533L1031.67 407.294L1035.81 407.347L1041.38 408.852L1045.9 412.901L1053.45 421.184L1065.85 435.099L1076.57 447.282L1079.93 453.098L1080.66 457.989L1079.89 462.903L1076.77 467.822L1069.42 474.001L1061.32 481.628L1065.11 486.439L1066.82 489.411L1066.74 492.323L1064.34 494.555L1061.76 494.607L1041.85 497.336L1015.43 521.355L976.277 553.403L953.791 569.842L909.928 508.261L931.45 492.042L968.793 462.812Z" stroke="#FCFBF5" stroke-width="2"/>
</svg>
