<svg width="1152" height="513" viewBox="0 0 1152 513" fill="none" xmlns="http://www.w3.org/2000/svg">
<path d="M1087.49 354.913C1084.12 356.388 1086.09 358.163 1087.49 358.865L1088.81 358.239L1091.44 358.865L1100.92 354.913H1115.4L1123.57 352.705L1130.67 354.913C1130.94 355.933 1131.31 358.292 1130.67 359.556C1129.88 361.137 1128.57 362.191 1127.51 362.455C1126.46 362.719 1124.62 365.881 1123.57 366.671C1122.72 367.304 1123.21 368.691 1123.57 369.306C1127.16 370.009 1134.78 371.52 1136.47 371.941C1138.57 372.468 1139.89 369.306 1140.68 367.989C1141.31 366.935 1141.47 362.982 1141.47 361.137V352.705V345.59V335.314L1138.05 322.237V315.386L1143.05 305.274V290.517V279.713V266.538V256.788L1147.26 243.085L1149.89 233.336V229.383C1150.6 228.153 1152 225.483 1152 224.64C1152 223.797 1149.89 221.302 1148.84 220.16L1149.89 212.518L1150.95 205.667V198.289L1152 190.911L1150.95 186.958L1147.26 182.478L1143.05 177.735C1141.82 177.032 1139.1 175.522 1138.05 175.1C1136.99 174.678 1134.62 173.87 1133.57 173.519L1130.41 170.884L1129.62 168.512V164.033L1130.41 159.817L1132.52 154.81V149.276V141.107L1130.41 137.418L1126.99 136.727L1125.93 131.72L1122.25 125.659L1116.72 124.605C1115.14 124.166 1111.61 123.288 1110.14 123.288C1108.66 123.288 1105.31 124.166 1103.82 124.605L1098.55 125.659C1097.24 126.274 1094.45 127.768 1093.81 128.822C1093.18 129.876 1089.86 130.139 1088.28 130.139C1087.32 129.261 1085.28 127.135 1084.86 125.659C1084.34 123.815 1079.07 124.605 1077.75 123.288C1076.44 121.97 1074.33 123.288 1073.54 122.234C1072.75 121.18 1070.12 123.288 1068.8 123.288C1067.75 123.288 1067.13 124.869 1066.96 125.659C1065.55 125.659 1062.59 126.028 1061.96 127.504C1061.32 128.98 1057.83 128.997 1056.16 128.822L1053.53 127.504L1047.21 125.659L1039.84 127.504L1036.68 125.659L1031.15 123.288L1026.94 122.234C1025.36 122.673 1021.62 123.762 1019.3 124.605C1016.41 125.659 1017.2 125.659 1016.41 127.504C1015.78 128.98 1014.74 128.119 1014.3 127.504L1008.77 125.659H1004.03L999.82 127.504L996.398 130.139H992.448L989.552 125.659L986.919 122.234H979.81L977.704 119.599H971.385H965.066H962.17L956.115 124.605L954.535 129.085C953.219 128.558 950.428 127.504 949.796 127.504C949.164 127.504 945.32 126.274 943.477 125.659L938.211 124.605L931.629 127.504H929.259L926.627 122.234L922.414 119.599L917.675 117.227H911.356L905.827 122.234L903.721 127.504L900.824 129.085L898.192 127.504H894.506H890.03H885.027V124.869L882.921 119.862L877.655 116.173L872.653 114.329L867.387 116.173L862.648 117.227H857.909L852.38 118.545H847.641L842.901 119.862H839.479L837.636 116.173L835.266 111.693L834.476 107.477L829.737 106.423L827.104 107.477L823.681 105.369C822.365 105.808 819.364 106.845 817.889 107.477C816.046 108.268 813.15 109.058 811.834 110.112C810.517 111.166 810.254 112.748 809.727 114.329C809.306 115.593 808.85 116.085 808.674 116.173H804.198L798.669 117.227L796.826 116.173L792.35 112.748C790.332 112.748 786.031 113.064 784.978 114.329C783.925 115.593 782.784 113.802 782.345 112.748L776.816 110.112L770.234 112.748L764.705 110.112L757.596 111.166L755.227 112.748L751.804 114.329H745.222L742.063 112.748H737.85L734.954 114.329L732.321 117.227L730.215 118.808H727.319L723.896 116.173L721 112.748H716.787H712.048L710.205 110.112L708.625 105.369L702.043 101.944L693.091 103.788L688.879 106.423L687.299 110.112L682.823 109.058H676.241L669.659 110.112L664.656 109.058L656.231 106.423L650.965 107.741L644.383 110.112L641.487 112.748L638.328 111.43H632.009L628.849 110.112L625.427 107.741L618.844 106.423H613.842H608.313L601.994 112.748H599.888L593.832 111.43L588.04 109.585L583.301 112.748L581.194 111.43L574.612 108.004L569.346 106.423L561.185 101.68C559.342 101.68 555.287 101.417 553.813 100.363C552.338 99.3085 550.214 100.802 549.337 101.68L545.651 105.106L543.018 108.004L539.858 105.106L533.013 101.68H525.114L519.849 104.052H515.899L511.95 105.106L508.264 109.585L504.841 108.004C504.139 107.477 502.419 106.423 501.155 106.423C499.576 106.423 498.786 105.106 497.469 104.052C496.153 102.998 493.257 104.052 491.414 104.052C489.939 104.052 487.815 104.754 486.938 105.106C485.534 105.369 482.462 106.002 481.409 106.423C480.356 106.845 477.284 108.707 475.88 109.585C475.529 110.025 474.721 111.167 474.3 112.221C473.879 113.275 471.316 115.646 470.087 116.7L464.295 119.862C463.066 120.214 460.346 120.706 459.293 119.862C457.976 118.808 455.343 119.862 453.5 119.862C451.657 119.862 450.078 119.335 449.024 119.862C448.182 120.284 446.041 120.741 445.075 120.916L439.283 124.606H438.23C436.474 124.166 432.701 123.288 431.648 123.288H424.802C423.486 124.43 420.853 126.872 420.853 127.504C420.853 128.295 418.22 133.565 418.22 135.409V140.153L419.536 144.105L420.853 146.213V151.22L418.22 155.173L411.111 161.233L406.109 168.085L402.423 175.726C401.721 178.976 400.316 185.634 400.316 186.267C400.316 186.899 399.439 191.449 399 193.645H401.37L402.423 197.334L401.37 207.611L402.423 228.428L406.109 238.705L409.005 243.975V260.84C409.005 266.461 408.426 278.548 406.109 281.921C403.792 285.293 402.686 294.218 402.423 298.258V313.542V320.393L409.005 322.764H414.007L417.693 320.393L421.643 315.386L427.698 313.542L429.541 311.697L434.807 315.386L441.389 317.758H444.549H448.235H452.184L456.397 315.386H462.452L466.138 311.697L472.194 309.062L479.302 305.636H485.358C486.674 306.778 490.518 309.062 495.363 309.062C497.469 309.062 499.576 306.778 500.365 305.636L504.051 303.265H508.001L516.952 305.636H520.902H525.114L532.486 298.258L541.701 295.623C544.334 296.501 550.021 298.732 551.706 300.63C553.391 302.527 558.025 299.839 560.131 298.258V291.67L564.871 286.664L570.926 284.556C572.33 285.258 575.613 286.664 577.508 286.664C579.878 286.664 584.091 289.299 586.723 289.299C588.83 289.299 592.165 287.542 593.569 286.664L601.731 289.299V295.623L610.419 303.265H616.475C618.16 303.265 619.283 304.846 619.634 305.636V311.697V315.386L626.743 317.758H634.115L643.593 315.386L650.439 309.062L657.548 305.636H667.289H669.922H673.608V311.697L679.664 315.386L683.876 311.697L689.669 305.636L693.618 303.265L699.937 305.636V311.697L704.676 317.758L711.521 320.129H719.947V317.758H725.212H728.898L734.427 315.386L740.746 317.758H747.855H752.857L759.44 315.386H767.865H771.024L776.816 317.758C777.606 319.251 779.66 322.237 781.556 322.237H790.771L794.457 320.129L796.826 315.386L799.986 309.062L805.251 303.265L811.044 305.636L816.836 309.062C817.099 311.17 817.994 315.386 819.469 315.386C820.943 315.386 826.051 319.954 828.421 322.237L833.423 324.872L839.215 322.237V317.758C840.62 317.758 844.797 318.232 850.273 320.129C851.748 320.129 854.925 318.548 856.329 317.758V315.386C857.382 314.156 860.12 312.435 862.648 315.386C865.175 318.337 868.089 318.197 869.23 317.758L874.233 315.386L881.605 317.758L878.182 320.129H888.977L893.452 317.758L897.138 309.062H901.614C903.457 309.589 908.249 310.854 912.672 311.697C917.096 312.54 914.515 314.508 912.672 315.386V322.237V329.352C912.672 332.936 915.305 332.778 916.622 332.251H921.887L928.206 329.352L935.052 324.872L937.948 329.352L935.052 334.622L925.837 341.737L928.206 348.852H940.318L942.687 344.899L947.163 336.994L951.902 334.622H962.17H967.436H972.965C973.667 336.994 975.335 342.369 976.388 344.899C977.704 348.061 981.917 348.852 985.076 348.852H989.815L988.762 344.899L985.076 336.994L981.917 332.251V320.129L997.977 317.758L1007.46 322.237C1007.63 323.818 1007.88 327.455 1007.46 329.352C1006.93 331.724 1010.35 332.251 1014.56 332.251H1026.68H1036.15C1037.56 332.778 1040.84 334.464 1042.74 336.994C1044.63 339.524 1048.79 338.048 1050.63 336.994C1053.18 338.575 1058.64 341.737 1060.11 341.737H1068.27H1077.75C1079.77 342.44 1084.55 344.056 1087.49 344.899C1091.18 345.953 1094.34 343.318 1094.34 350.696C1091.71 353.595 1091.71 353.068 1087.49 354.913Z" fill="#372920" fill-opacity="0.8"/>
<path d="M64.5053 354.913C67.8754 356.388 65.9095 358.163 64.5053 358.865L63.1888 358.239L60.556 358.865L51.0776 354.913H36.5969L28.435 352.705L21.3262 354.913C21.0629 355.933 20.6943 358.292 21.3262 359.556C22.1161 361.137 23.4325 362.191 24.4857 362.455C25.5388 362.719 27.3818 365.881 28.435 366.671C29.2775 367.304 28.7861 368.691 28.435 369.306C24.8367 370.009 17.219 371.52 15.5339 371.941C13.4276 372.468 12.1112 369.306 11.3214 367.989C10.6895 366.935 10.5315 362.982 10.5315 361.137V352.705V345.59V335.314L13.9542 322.237V315.386L8.95178 305.274V290.517V279.713V266.538V256.788L4.7392 243.085L2.10632 233.336V229.383C1.40424 228.153 0 225.483 0 224.64C0 223.797 2.10626 221.302 3.15942 220.16L2.10632 212.518L1.05316 205.667V198.289L0 190.911L1.05316 186.958L4.7392 182.478L8.95178 177.735C10.1805 177.032 12.9011 175.522 13.9542 175.1C15.0074 174.678 17.3769 173.87 18.4301 173.519L21.5895 170.884L22.3794 168.512V164.033L21.5895 159.817L19.4832 154.81V149.276V141.107L21.5895 137.418L25.0123 136.727L26.0654 131.72L29.7514 125.659L35.2805 124.605C36.8602 124.166 40.3882 123.288 41.8626 123.288C43.337 123.288 46.6895 124.166 48.1815 124.605L53.4472 125.659C54.7636 126.274 57.5545 127.768 58.1864 128.822C58.8183 129.876 62.1357 130.139 63.7154 130.139C64.6808 129.261 66.7169 127.135 67.1381 125.659C67.6647 123.815 72.9305 124.605 74.2469 123.288C75.5633 121.97 77.6696 123.288 78.4595 122.234C79.2493 121.18 81.8822 123.288 83.1986 123.288C84.2518 123.288 84.8661 124.869 85.0416 125.659C86.4458 125.659 89.4122 126.028 90.0441 127.504C90.676 128.98 94.1689 128.997 95.8364 128.822L98.4692 127.504L104.788 125.659L112.16 127.504L115.32 125.659L120.849 123.288L125.061 122.234C126.641 122.673 130.38 123.762 132.697 124.605C135.593 125.659 134.803 125.659 135.593 127.504C136.225 128.98 137.26 128.119 137.699 127.504L143.228 125.659H147.967L152.18 127.504L155.602 130.139H159.552L162.448 125.659L165.081 122.234H172.19L174.296 119.599H180.615H186.934H189.83L195.885 124.605L197.465 129.085C198.781 128.558 201.572 127.504 202.204 127.504C202.836 127.504 206.68 126.274 208.523 125.659L213.789 124.605L220.371 127.504H222.741L225.373 122.234L229.586 119.599L234.325 117.227H240.644L246.173 122.234L248.279 127.504L251.176 129.085L253.808 127.504H257.494H261.97H266.973V124.869L269.079 119.862L274.345 116.173L279.347 114.329L284.613 116.173L289.352 117.227H294.091L299.62 118.545H304.359L309.099 119.862H312.521L314.364 116.173L316.734 111.693L317.524 107.477L322.263 106.423L324.896 107.477L328.319 105.369C329.635 105.808 332.636 106.845 334.111 107.477C335.954 108.268 338.85 109.058 340.166 110.112C341.483 111.166 341.746 112.748 342.273 114.329C342.694 115.593 343.15 116.085 343.326 116.173H347.802L353.331 117.227L355.174 116.173L359.65 112.748C361.668 112.748 365.969 113.064 367.022 114.329C368.075 115.593 369.216 113.802 369.655 112.748L375.184 110.112L381.766 112.748L387.295 110.112L394.404 111.166L396.773 112.748L400.196 114.329H406.778L409.937 112.748H414.15L417.046 114.329L419.679 117.227L421.785 118.808H424.681L428.104 116.173L431 112.748H435.213H439.952L441.795 110.112L443.375 105.369L449.957 101.944L458.909 103.788L463.121 106.423L464.701 110.112L469.177 109.058H475.759L482.341 110.112L487.344 109.058L495.769 106.423L501.035 107.741L507.617 110.112L510.513 112.748L513.672 111.43H519.991L523.151 110.112L526.573 107.741L533.156 106.423H538.158H543.687L550.006 112.748H552.112L558.168 111.43L563.96 109.585L568.699 112.748L570.806 111.43L577.388 108.004L582.654 106.423L590.815 101.68C592.658 101.68 596.713 101.417 598.187 100.363C599.662 99.3085 601.786 100.802 602.663 101.68L606.349 105.106L608.982 108.004L612.142 105.106L618.987 101.68H626.886L632.151 104.052H636.101L640.05 105.106L643.736 109.585L647.159 108.004C647.861 107.477 649.581 106.423 650.845 106.423C652.424 106.423 653.214 105.106 654.531 104.052C655.847 102.998 658.743 104.052 660.586 104.052C662.061 104.052 664.185 104.754 665.062 105.106C666.466 105.369 669.538 106.002 670.591 106.423C671.644 106.845 674.716 108.707 676.12 109.585C676.471 110.025 677.279 111.167 677.7 112.221C678.121 113.275 680.684 115.646 681.913 116.7L687.705 119.862C688.934 120.214 691.654 120.706 692.707 119.862C694.024 118.808 696.657 119.862 698.5 119.862C700.343 119.862 701.922 119.335 702.976 119.862C703.818 120.284 705.959 120.741 706.925 120.916L712.717 124.606H713.77C715.526 124.166 719.299 123.288 720.352 123.288H727.198C728.514 124.43 731.147 126.872 731.147 127.504C731.147 128.295 733.78 133.565 733.78 135.409V140.153L732.464 144.105L731.147 146.213V151.22L733.78 155.173L740.889 161.233L745.891 168.085L749.577 175.726C750.279 178.976 751.684 185.634 751.684 186.267C751.684 186.899 752.561 191.449 753 193.645H750.63L749.577 197.334L750.63 207.611L749.577 228.428L745.891 238.705L742.995 243.975V260.84C742.995 266.461 743.574 278.548 745.891 281.921C748.208 285.293 749.314 294.218 749.577 298.258V313.542V320.393L742.995 322.764H737.993L734.307 320.393L730.357 315.386L724.302 313.542L722.459 311.697L717.193 315.386L710.611 317.758H707.451H703.765H699.816L695.603 315.386H689.548L685.862 311.697L679.806 309.062L672.698 305.636H666.642C665.326 306.778 661.482 309.062 656.637 309.062C654.531 309.062 652.424 306.778 651.635 305.636L647.949 303.265H643.999L635.048 305.636H631.098H626.886L619.514 298.258L610.299 295.623C607.666 296.501 601.979 298.732 600.294 300.63C598.609 302.527 593.975 299.839 591.869 298.258V291.67L587.129 286.664L581.074 284.556C579.67 285.258 576.387 286.664 574.492 286.664C572.122 286.664 567.909 289.299 565.277 289.299C563.17 289.299 559.835 287.542 558.431 286.664L550.269 289.299V295.623L541.581 303.265H535.525C533.84 303.265 532.717 304.846 532.366 305.636V311.697V315.386L525.257 317.758H517.885L508.407 315.386L501.561 309.062L494.452 305.636H484.711H482.078H478.392V311.697L472.336 315.386L468.124 311.697L462.331 305.636L458.382 303.265L452.063 305.636V311.697L447.324 317.758L440.479 320.129H432.053V317.758H426.788H423.102L417.573 315.386L411.254 317.758H404.145H399.143L392.56 315.386H384.135H380.976L375.184 317.758C374.394 319.251 372.34 322.237 370.444 322.237H361.229L357.543 320.129L355.174 315.386L352.014 309.062L346.749 303.265L340.956 305.636L335.164 309.062C334.901 311.17 334.006 315.386 332.531 315.386C331.057 315.386 325.949 319.954 323.579 322.237L318.577 324.872L312.785 322.237V317.758C311.38 317.758 307.203 318.232 301.727 320.129C300.252 320.129 297.075 318.548 295.671 317.758V315.386C294.618 314.156 291.88 312.435 289.352 315.386C286.825 318.337 283.911 318.197 282.77 317.758L277.767 315.386L270.395 317.758L273.818 320.129H263.023L258.548 317.758L254.862 309.062H250.386C248.543 309.589 243.751 310.854 239.328 311.697C234.904 312.54 235.157 315.122 237 316L239.328 322.237V328C239.328 331.584 235.816 332.778 234.5 332.251H230.113L223.794 329.352L216.948 324.872L214.052 329.352L216.948 334.622L225.5 341.5L223.794 348L218 350.5L211.682 348.852L209.313 344.899L204.837 336.994L200.098 334.622H189.83H184.564H179.035C178.333 336.994 176.665 342.369 175.612 344.899C174.296 348.061 170.083 348.852 166.924 348.852H162.185L163.238 344.899L166.924 336.994L170.083 332.251V320.129L154.023 317.758L144.544 322.237C144.369 323.818 144.123 327.455 144.544 329.352C145.071 331.724 141.648 332.251 137.436 332.251H125.324H115.846C114.442 332.778 111.16 334.464 109.264 336.994C107.368 339.524 103.208 338.048 101.365 336.994C98.8201 338.575 93.3614 341.737 91.887 341.737H83.725H74.2467C72.2281 342.44 67.454 344.056 64.5053 344.899C60.8195 345.953 57.6597 343.318 57.6597 350.696C60.2925 353.595 60.2927 353.068 64.5053 354.913Z" fill="#5E534A"/>
<path d="M813.215 432.9H819C817.072 434.288 812.845 437.062 811.364 437.062H802.572H797.019L792.16 434.75L787.532 436.138L782.21 438.45L780.59 440.3L778.045 444L771.566 438.45L765.551 441.456C766.785 440.763 769.253 439.19 769.253 438.45C769.253 437.71 772.646 435.058 774.343 433.825V429.894L769.253 428.044H764.394L755.601 429.894L746.346 431.744L732 429.894L746.346 428.044L755.601 422.956L763.005 417.406L764.394 412.087L766.939 405.15V392.663V379.712L763.005 364.681L760.691 343.175V325.831V312.65L763.005 298.312L766.939 277.038L769.484 249.75V229.631V214.137L771.104 186.619L774.112 172.512L778.739 157.481L780.359 148.463V120.944L778.739 107.3L774.112 95.7375L769.021 80.2438L765.319 63.825L763.699 49.7188V36.7687L761.617 32.1437L759.303 24.5125L756.758 20.5813L752.13 14.5688L746.809 11.1L738.71 9.48125H734.545V7.4V3.46875L736.628 0H798.638L794.011 9.48125L791.234 18.0375V32.1437C791.234 33.2537 793.085 37.3854 794.011 39.3125L796.324 46.0187L798.638 55.5L800.489 65.2125L804.654 80.2438L811.827 92.7313V99.6688V134.819V153.781C810.67 159.562 808.31 171.402 808.125 172.512C807.94 173.622 805.271 182.379 803.96 186.619V202.575V214.137V222.694L800.952 229.631L802.34 246.975L800.952 261.312L797.019 283.281L795.862 319.356V333.694L797.25 351.962L799.564 366.3L800.721 386.881V412.087L802.572 422.956L805.58 428.044L809.282 431.744L813.215 432.9Z" fill="#372920"/>
<path d="M926.833 193.076C924.928 192.507 922.817 195.288 922 196.75C925.978 192.862 929.074 195.13 930.125 196.75C929.821 195.762 928.738 193.645 926.833 193.076Z" fill="white"/>
<path d="M941.208 193.076C939.303 192.507 937.192 195.288 936.375 196.75C940.353 192.862 943.449 195.13 944.5 196.75C944.196 195.762 943.113 193.645 941.208 193.076Z" fill="white"/>
<path d="M932.927 203.82C929.719 204.349 926.972 202.827 926 202C926.82 203.847 929.354 207.558 932.927 207.624C936.5 207.69 938.548 203.902 939.125 202C938.396 202.386 936.135 203.29 932.927 203.82Z" fill="white"/>
</svg>
