<svg width="1152" height="322" viewBox="0 0 1152 322" fill="none" xmlns="http://www.w3.org/2000/svg">
<path d="M48.7169 254.505L45.1738 258.374V302.224H0V322L535 318.991V298.355H464.139V286.318L461.482 268.692V260.953V245.047H464.139V241.178H455.724L454.839 230.43L453.067 212.374L449.081 180.561L446.424 157.776L439.338 111.776L436.238 101.028L412.765 32.243L409.222 30.5234H403.907L399.921 32.243L400.807 97.1589L395.935 99.7383L393.278 104.467L397.707 238.168H386.635V242.467L378.663 245.907L376.006 250.206L378.663 253.215L382.649 255.364V286.318H359.619L357.405 282.879V278.579V258.374L360.505 254.075L359.619 251.925H352.533L349.433 216.243L345.89 169.383L342.79 136.28L341.018 126.393L329.503 74.3738L321.974 70.9346L319.76 74.3738V126.393L317.546 134.131L319.76 245.907H314.003V247.626V250.206H312.674V251.065H310.017V251.925H304.259V255.364H307.359V257.084H309.131V259.234H308.245V282.879H298.502V278.579H284.329V277.29L283.887 259.234V254.075V234.729V220.972V216.243L281.672 213.234L279.015 210.224L275.472 207.215L271.043 205.925L268.829 205.065L267.057 204.206L264.843 202.486L262.628 200.766L259.971 198.187L258.2 196.037L257.757 195.178L257.314 193.028V190.449L259.528 189.589L260.857 189.159L262.628 186.15L263.957 184.43L264.4 183.14L262.628 181.421L261.3 180.991H258.2L256.428 180.561L255.542 179.271V177.551V176.692L257.314 176.262L258.642 175.402V174.112L259.085 171.963H260.414H262.628L265.286 170.673L265.728 169.383L265.286 167.664L264.4 166.374H259.085H244.913L240.041 166.804C239.746 167.09 239.156 167.75 239.156 168.093C239.156 168.437 239.746 169.67 240.041 170.243C240.78 170.386 242.344 170.759 242.699 171.103C243.053 171.447 243.732 171.533 244.027 171.533L244.913 172.822L245.799 174.112L247.127 176.262L248.899 176.692L249.342 179.271L247.57 179.701V181.85L240.927 182.28V183.14V184.43L241.37 186.15L242.256 187.869L243.584 189.589L246.685 191.308V195.178L244.913 197.757L241.37 200.766L239.599 202.916L239.156 205.065L233.398 207.215L228.084 209.794L222.769 214.093L219.226 218.822L218.34 223.981V229.57V282.879H198.411V286.318H192.21V288.037H177.152L175.381 278.579V273.85V245.907L181.581 239.458L158.108 236.449V229.57V208.935V195.607V70.9346L151.465 61.4766V0H130.65L111.606 70.9346L109.392 78.6729L106.734 105.757H104.52V40.8411H94.7765L92.5621 43.8505L66.875 119.084L65.1035 143.159L62.8891 159.065L58.0174 199.907L54.4743 233.869L51.3742 245.907L45.1738 250.636L48.7169 254.505Z" fill="#372920"/>
<rect y="287" width="1152" height="35" fill="#372920"/>
</svg>
