<svg width="1141" height="317" viewBox="0 0 1141 317" fill="none" xmlns="http://www.w3.org/2000/svg">
<path d="M41.7053 264.147L38.6722 267.463V305.049H0V322L458 319.421V301.733H397.338V291.415L395.063 276.307V269.674V256.04H397.338V252.724H390.134L389.376 243.511L387.859 228.035L384.447 200.766L382.172 181.236L376.106 141.808L373.452 132.595L353.358 73.6369L350.324 72.1629H345.775L342.363 73.6369L343.121 129.279L338.95 131.49L336.676 135.543L340.467 250.144H330.988V253.829L324.164 256.777L321.889 260.462L324.164 263.041L327.576 264.884V291.415H307.861L305.965 288.467V284.782V267.463L308.619 263.778L307.861 261.936H301.795L299.141 231.351L296.108 191.186L293.454 162.812L291.937 154.336L282.079 109.749L275.634 106.801L273.738 109.749V154.336L271.843 160.969L273.738 256.777H268.81V258.251V260.462H267.672V261.199H265.397V261.936H260.469V264.884H263.123V266.358H264.639V268.2H263.881V288.467H255.54V284.782H243.407V283.677L243.028 268.2V263.778V247.196V235.405V231.351L241.132 228.772L238.858 226.192L235.825 223.613L232.033 222.507L230.137 221.77L228.621 221.033L226.725 219.559L224.829 218.085L222.555 215.875L221.038 214.032L220.659 213.295L220.28 211.453V209.242L222.176 208.505L223.313 208.136L224.829 205.557L225.967 204.083L226.346 202.977L224.829 201.503L223.692 201.135H221.038L219.522 200.766L218.763 199.661V198.187V197.45L220.28 197.081L221.417 196.344V195.239L221.796 193.397H222.934H224.829L227.104 192.291L227.483 191.186L227.104 189.712L226.346 188.606H221.796H209.664L205.493 188.975C205.241 189.22 204.735 189.785 204.735 190.08C204.735 190.375 205.241 191.431 205.493 191.923C206.125 192.045 207.465 192.365 207.768 192.66C208.072 192.954 208.653 193.028 208.906 193.028L209.664 194.134L210.422 195.239L211.56 197.081L213.076 197.45L213.455 199.661L211.939 200.029V201.872L206.252 202.24V202.977V204.083L206.631 205.557L207.389 207.031L208.526 208.505L211.18 209.979V213.295L209.664 215.506L206.631 218.085L205.114 219.928L204.735 221.77L199.806 223.613L195.257 225.824L190.707 229.509L187.674 233.562L186.916 237.984V242.774V288.467H169.854V291.415H164.546V292.889H151.656L150.139 284.782V280.729V256.777L155.447 251.25L135.353 248.67V242.774V225.087V213.664V106.801L129.666 98.6943V46H111.846L95.543 106.801L93.6474 113.434L91.3725 136.649H89.4768V81.0067H81.1358L79.2401 83.5861L57.25 148.072L55.7334 168.708L53.8377 182.342L49.6672 217.348L46.6341 246.459L43.9801 256.777L38.6722 260.83L41.7053 264.147Z" fill="#372920"/>
<rect y="287" width="1152" height="35" fill="#372920"/>
</svg>
